<svg width="24" height="24" viewBox="0 0 24 24" fill="none" xmlns="http://www.w3.org/2000/svg">
<path fill-rule="evenodd" clip-rule="evenodd" d="M11.9993 0.923944C5.88258 0.923944 0.924 5.88252 0.924 11.9992C0.924 18.116 5.88258 23.0745 11.9993 23.0745C18.116 23.0745 23.0746 18.116 23.0746 11.9992C23.0881 9.05778 21.9255 6.2329 19.8456 4.15296C17.7656 2.07301 14.9407 0.910484 11.9993 0.923944H11.9993ZM17.0335 13.0061H13.0061V17.0335C13.0061 17.5895 12.5554 18.0403 11.9993 18.0403C11.4432 18.0403 10.9925 17.5895 10.9925 17.0335V13.0061H6.96508C6.40901 13.0061 5.95824 12.5553 5.95824 11.9992C5.95824 11.4432 6.40902 10.9924 6.96508 10.9924H10.9925V6.96501C10.9925 6.40894 11.4432 5.95817 11.9993 5.95817C12.5554 5.95817 13.0061 6.40895 13.0061 6.96501V10.9924H17.0335C17.5896 10.9924 18.0404 11.4432 18.0404 11.9992C18.0404 12.5553 17.5896 13.0061 17.0335 13.0061Z" fill="#3C57EF"/>
</svg>
