<svg width="20" height="28" viewBox="0 0 20 28" fill="none" xmlns="http://www.w3.org/2000/svg">
<path fill-rule="evenodd" clip-rule="evenodd" d="M14.7377 16.4668H4.33766C3.85904 16.4668 3.47099 16.8548 3.47099 17.3335V21.6668C3.47099 23.1004 4.63736 24.2668 6.07098 24.2668H13.0043C14.438 24.2668 15.6043 23.1004 15.6043 21.6668V17.3335C15.6043 16.8548 15.2163 16.4668 14.7377 16.4668Z" fill="white"/>
<path fill-rule="evenodd" clip-rule="evenodd" d="M19.0713 15.8659C19.0713 13.9869 19.1617 11.6418 18.5446 9.8689C18.8804 9.25373 19.0713 8.5488 19.0713 7.8V6.06667C19.0713 4.63304 17.905 3.46667 16.4713 3.46667H13.0047C13.0047 1.55513 11.4495 0 9.53801 0C7.62647 0 6.07134 1.55512 6.07134 3.46667H2.60467C1.17104 3.46667 0.00466762 4.63304 0.00466762 6.06667V7.8C0.00466762 8.5488 0.195658 9.25372 0.531388 9.8689C-0.0859524 11.6426 0.00466762 12.8566 0.00466762 14.7333C0.00466762 19.0306 0.0979976 21.2466 0.0979976 25.0629C0.458858 26.5917 1.83382 27.7333 3.47134 27.7333H15.6047C17.2422 27.7333 18.625 26.5802 18.978 25.0629L19.0713 15.8659ZM9.53802 1.73334C10.4938 1.73334 11.2713 2.5109 11.2713 3.46667H7.80468C7.80468 2.5109 8.58224 1.73334 9.53801 1.73334H9.53802ZM1.73802 6.06668C1.73802 5.58882 2.12683 5.20001 2.60468 5.20001H16.4713C16.9492 5.20001 17.338 5.58882 17.338 6.06668V7.80001C17.338 9.23364 16.1716 10.4 14.738 10.4H14.3047V9.96668C14.3047 9.48806 13.9166 9.10001 13.438 9.10001C12.9594 9.10001 12.5713 9.48806 12.5713 9.96668V10.4H6.50468V9.96668C6.50468 9.48806 6.11663 9.10001 5.63801 9.10001C5.15939 9.10001 4.77134 9.48806 4.77134 9.96668V10.4H4.33801C2.90438 10.4 1.73801 9.23364 1.73801 7.80001L1.73802 6.06668ZM15.6047 26H3.47136C2.51559 26 1.73803 25.2225 1.73803 24.2667C1.73803 12.1403 1.67698 12.4694 1.90567 11.3843C2.5996 11.8567 3.43707 12.1334 4.33802 12.1334H4.77135V12.5667C4.77135 13.0453 5.1594 13.4333 5.63802 13.4333C6.11664 13.4333 6.50469 13.0453 6.50469 12.5667V12.1334H12.5714V12.5667C12.5714 13.0453 12.9594 13.4333 13.438 13.4333C13.9166 13.4333 14.3047 13.0453 14.3047 12.5667V12.1334C14.9278 12.1334 15.9878 12.1894 17.1704 11.3843C17.3926 12.4388 17.338 11.7136 17.338 24.2667C17.338 25.2225 16.5605 26 15.6047 26Z" fill="white"/>

</svg>
