<svg width="30" height="30" viewBox="0 0 30 30" fill="none" xmlns="http://www.w3.org/2000/svg">
<path fill-rule="evenodd" clip-rule="evenodd" d="M13.4321 6.59822L5.9709 14.1221C5.72499 14.3478 5.585 14.6662 5.585 14.9999C5.585 15.3337 5.72499 15.6521 5.9709 15.8777L13.4321 23.4016C13.8906 23.8502 14.6055 23.9031 15.125 23.527C15.4312 23.3214 15.6249 22.9854 15.6495 22.6173C15.674 22.2493 15.5266 21.8906 15.2504 21.6461L9.85825 16.2539H23.1505C23.8431 16.2539 24.4045 15.6925 24.4045 14.9999C24.4045 14.3074 23.8431 13.7459 23.1505 13.7459H9.85825L15.2504 8.35377C15.5266 8.10926 15.674 7.75058 15.6495 7.3825C15.6249 7.01442 15.4312 6.67847 15.125 6.47279C14.6055 6.09671 13.8906 6.14967 13.4321 6.59819V6.59822Z" fill="white"/>
</svg>
