<svg width="18" height="18" viewBox="0 0 18 18" fill="none" xmlns="http://www.w3.org/2000/svg">
<path fill-rule="evenodd" clip-rule="evenodd" d="M16.582 2.38281H1.41724C0.99848 2.38281 0.659 2.72229 0.659 3.14105V14.5147C0.659 14.9334 0.99848 15.2729 1.41724 15.2729H16.582C17.0008 15.2729 17.3403 14.9334 17.3403 14.5147V3.14105C17.3403 2.72229 17.0008 2.38281 16.582 2.38281ZM15.8238 13.7564H2.17547V6.06028L8.81007 9.96521C8.92482 10.0419 9.07445 10.0419 9.18919 9.96521L15.8238 5.94654V13.7564ZM9.1892 8.22125C9.07445 8.29792 8.92482 8.29792 8.81008 8.22125L2.17548 3.89928H15.8238L9.1892 8.22125Z" fill="#3C57EF"/>
</svg>
