<svg width="27" height="28" viewBox="0 0 27 28" fill="none" xmlns="http://www.w3.org/2000/svg">
<path fill-rule="evenodd" clip-rule="evenodd" d="M25.0374 3.81304V23.5401C25.0339 23.5826 25.0142 23.6221 24.9823 23.6503C24.9548 24.1863 24.5264 24.6146 23.9904 24.6422H18.2046V16.1562H20.9046C21.07 16.1562 21.07 16.1562 21.1251 15.9909L21.2904 14.6133C21.3455 14.0623 21.4006 13.5113 21.5108 12.9602C21.621 12.4092 21.5108 12.7949 21.4006 12.7949H18.2046V10.6459C18.2046 10.4806 18.2597 10.2601 18.2597 10.0948C18.309 9.62988 18.6764 9.26253 19.1413 9.21318L19.8577 9.10297H21.5108C21.621 9.10297 21.621 9.10297 21.621 8.99276V6.18248C21.621 6.12738 21.621 6.07227 21.5108 6.07227H18.976C18.3479 6.05503 17.7247 6.18723 17.1576 6.458C16.3102 6.7432 15.6144 7.35945 15.229 8.16621C14.9147 8.77883 14.7629 9.46187 14.7882 10.1499C14.733 10.9765 14.7882 11.8581 14.7882 12.7398H11.9779C11.8677 12.7398 11.8677 12.7949 11.8677 12.85V15.9909C11.8677 16.1011 11.8677 16.1011 11.9779 16.1011H14.7882V24.5871C14.7563 24.6153 14.7365 24.6548 14.7331 24.6973H4.04296C3.50699 24.6697 3.07864 24.2414 3.0511 23.7054C2.996 23.7054 2.996 23.6503 2.996 23.5952V3.81301C2.996 3.75791 2.996 3.7028 3.0511 3.7028C3.07864 3.16683 3.50699 2.73847 4.04296 2.71094H23.9905C24.5264 2.73848 24.9548 3.16683 24.9823 3.70281L25.0374 3.81304Z" fill="#3C57EF"/>
</svg>
