<svg width="20" height="28" viewBox="0 0 20 28" fill="none" xmlns="http://www.w3.org/2000/svg">
<path fill-rule="evenodd" clip-rule="evenodd" d="M9.50943 27.6078C4.26596 27.6078 0 23.3419 0 18.0984V6.02976C0 5.36719 0.5372 4.83008 1.19974 4.83008C1.86234 4.83008 2.39954 5.36719 2.39954 6.02976V18.0984C2.39954 22.0189 5.58899 25.2083 9.50943 25.2083C13.4298 25.2083 16.6193 22.0189 16.6193 18.0984V12.2622C16.6193 11.5996 17.1565 11.0625 17.8191 11.0625C18.4816 11.0625 19.0188 11.5996 19.0188 12.2622V18.0984C19.0188 23.3419 14.7529 27.6078 9.50943 27.6078Z" fill="white"/>
<path fill-rule="evenodd" clip-rule="evenodd" d="M9.5376 21.9549C7.03968 21.9549 4.81269 20.2799 4.12219 17.8817C3.93878 17.2449 4.30627 16.5801 4.94299 16.3967C5.58038 16.2135 6.24469 16.581 6.42798 17.2176C6.82428 18.594 8.10303 19.5553 9.5376 19.5553C10.9721 19.5553 12.2509 18.594 12.6472 17.2175C12.8307 16.5808 13.496 16.2136 14.1321 16.3967C14.7689 16.5802 15.1363 17.245 14.953 17.8817C14.2621 20.2799 12.0354 21.9549 9.53759 21.9549H9.5376Z" fill="white"/>
<path fill-rule="evenodd" clip-rule="evenodd" d="M5.25877 13.0299C4.59617 13.0299 4.059 12.4928 4.059 11.8302V3.05231C4.059 2.38965 4.59617 1.85254 5.25877 1.85254C5.92137 1.85254 6.45854 2.38965 6.45854 3.05231V11.8302C6.45854 12.4928 5.92137 13.0299 5.25877 13.0299Z" fill="white"/>
<path fill-rule="evenodd" clip-rule="evenodd" d="M9.48865 11.1259C8.82617 11.1259 8.289 10.5888 8.289 9.92615V1.19971C8.289 0.53705 8.82617 0 9.48865 0C10.1513 0 10.6884 0.53705 10.6884 1.19971V9.92615C10.6884 10.5888 10.1513 11.1259 9.48865 11.1259Z" fill="white"/>
<path fill-rule="evenodd" clip-rule="evenodd" d="M13.7188 13.0299C13.0562 13.0299 12.519 12.4928 12.519 11.8302V3.05231C12.519 2.38965 13.0562 1.85254 13.7188 1.85254C14.3814 1.85254 14.9185 2.38965 14.9185 3.05231V11.8302C14.9185 12.4928 14.3814 13.0299 13.7188 13.0299Z" fill="white"/>
</svg>
