<svg width="20" height="21" viewBox="0 0 20 21" fill="none" xmlns="http://www.w3.org/2000/svg">
<path fill-rule="evenodd" clip-rule="evenodd" d="M14.1749 3.99642C15.0586 3.98976 15.9049 4.35247 16.5096 4.99699C17.1499 5.60455 17.5118 6.44896 17.5101 7.33164C17.5101 8.20714 16.9682 9.2077 15.8842 10.4167L10.0059 16.6703L4.12759 10.4167C3.04365 9.2077 2.50168 8.20714 2.50168 7.33164C2.50004 6.44896 2.86193 5.60454 3.50224 4.99698C4.10687 4.35247 4.95319 3.98976 5.83689 3.99641C6.75407 3.99641 7.96308 4.83022 8.54675 5.87247L9.63069 7.70684C9.71656 7.82903 9.85655 7.90176 10.0059 7.90176C10.1552 7.90176 10.2952 7.82903 10.3811 7.70684L11.465 5.87247C12.0487 4.83021 13.2577 3.99641 14.1749 3.99641M14.1749 2.28712C12.549 2.28712 10.8397 3.57952 10.0059 4.99699C9.17211 3.57952 7.46281 2.28712 5.8369 2.28712C4.50282 2.29489 3.22709 2.8352 2.29324 3.78797C1.35184 4.72607 0.826187 6.00266 0.834087 7.33164C0.834087 9.04094 1.95972 10.5001 2.9186 11.584L9.71409 18.8381C9.8762 18.997 10.1356 18.997 10.2977 18.8381L17.0932 11.584C18.0521 10.5001 19.1777 9.04093 19.1777 7.33163C19.1777 4.56165 16.9445 2.30991 14.1748 2.28711L14.1749 2.28712Z" fill="#3C57EF"/>
</svg>
