<svg width="26" height="28" viewBox="0 0 26 28" fill="none" xmlns="http://www.w3.org/2000/svg">
<path fill-rule="evenodd" clip-rule="evenodd" d="M13.4287 4.63998H17.8921C18.5891 4.64817 19.2791 4.77873 19.9309 5.0257C20.8905 5.40092 21.6496 6.16005 22.0249 7.11964C22.2718 7.77142 22.4024 8.46152 22.4106 9.15847C22.4657 10.3156 22.4657 10.7014 22.4657 13.6219C22.4657 16.5423 22.4657 16.9281 22.4106 18.0852C22.4024 18.7822 22.2718 19.4723 22.0248 20.1241C21.6496 21.0837 20.8905 21.8428 19.9309 22.218C19.2791 22.465 18.589 22.5956 17.8921 22.6037H8.9653C8.26835 22.5956 7.57825 22.465 6.92647 22.218C5.96689 21.8428 5.20775 21.0837 4.83253 20.1241C4.58555 19.4723 4.45499 18.7822 4.4468 18.0853C4.3917 16.9281 4.3917 16.5424 4.3917 13.6219C4.3917 10.7014 4.3917 10.3157 4.4468 9.15848C4.45499 8.46152 4.58555 7.77142 4.83253 7.11965C5.20775 6.16006 5.96688 5.40093 6.92647 5.02571C7.57825 4.77873 8.26835 4.64817 8.9653 4.63999H13.4287M13.4287 2.65625H8.91021C7.99147 2.69489 7.08264 2.86182 6.21014 3.15218C5.47495 3.46605 4.81686 3.93612 4.28151 4.52977C3.70481 5.05688 3.26912 5.71988 3.01413 6.4584C2.67546 7.31971 2.48901 8.23333 2.4631 9.15847C2.40799 10.3156 2.40799 10.7014 2.40799 13.677C2.40799 16.6526 2.40799 17.0383 2.46309 18.1955C2.489 19.1206 2.67545 20.0342 3.01413 20.8955C3.26912 21.6341 3.70481 22.2971 4.28151 22.8242C4.80862 23.4009 5.47161 23.8365 6.21013 24.0915C7.07145 24.4302 7.98506 24.6167 8.91021 24.6426H17.9472C18.8723 24.6167 19.7859 24.4302 20.6473 24.0915C21.3858 23.8365 22.0488 23.4009 22.5759 22.8242C23.1496 22.2833 23.6006 21.6256 23.8984 20.8955C24.1887 20.023 24.3557 19.1142 24.3943 18.1955C24.4494 17.0383 24.4494 16.6526 24.4494 13.677C24.4494 10.7014 24.4494 10.3157 24.3943 9.15849C24.3557 8.23975 24.1887 7.33092 23.8984 6.45841C23.6006 5.72832 23.1496 5.07064 22.5759 4.52979C22.035 3.95606 21.3773 3.50507 20.6473 3.20731C19.7747 2.91695 18.8659 2.75002 17.9472 2.71138H13.4287" fill="#3C57EF"/>
<path fill-rule="evenodd" clip-rule="evenodd" d="M13.4287 8.00098C10.2941 8.00098 7.75299 10.5421 7.75299 13.6766C7.75299 16.8112 10.2941 19.3523 13.4287 19.3523C16.5632 19.3523 19.1043 16.8112 19.1043 13.6766C19.1043 10.5421 16.5632 8.00098 13.4287 8.00098ZM13.4287 17.3686C11.3897 17.3686 9.73672 15.7156 9.73672 13.6766C9.73672 11.6376 11.3897 9.98471 13.4287 9.98471C15.4677 9.98471 17.1206 11.6376 17.1206 13.6766C17.1206 15.7156 15.4677 17.3686 13.4287 17.3686Z" fill="#3C57EF"/>
<path fill-rule="evenodd" clip-rule="evenodd" d="M20.647 7.7805C20.647 8.51089 20.0549 9.10299 19.3245 9.10299C18.5941 9.10299 18.002 8.51089 18.002 7.7805C18.002 7.05011 18.5941 6.45801 19.3245 6.45801C20.0549 6.45801 20.647 7.05011 20.647 7.7805Z" fill="#3C57EF"/>
</svg>
