<svg width="26" height="28" viewBox="0 0 26 28" fill="none" xmlns="http://www.w3.org/2000/svg">
<path fill-rule="evenodd" clip-rule="evenodd" d="M22.0103 2.71091H3.2751C2.84182 2.69596 2.42106 2.8577 2.10935 3.15902C1.79764 3.46034 1.62174 3.87538 1.62199 4.30892V23.0992C1.62173 23.5328 1.79763 23.9478 2.10934 24.2491C2.42105 24.5504 2.84181 24.7122 3.27509 24.6972H22.0103C22.8929 24.6972 23.6083 23.9818 23.6083 23.0992V4.30891C23.6083 3.42636 22.8929 2.71091 22.0103 2.71091H22.0103ZM8.17931 21.4461H4.8731V10.9764H8.17931V21.4461ZM6.52621 9.54375C5.48264 9.51392 4.65226 8.65912 4.65269 7.61513C4.65269 6.58041 5.49149 5.74161 6.52621 5.74161C7.56093 5.74161 8.39973 6.58041 8.39973 7.61513C8.40016 8.65913 7.56978 9.51393 6.52621 9.54375ZM20.3572 21.4461H17.1061V16.3215C17.1061 15.1092 17.1061 13.5663 15.3979 13.5663C13.6897 13.5663 13.4693 14.8888 13.4693 16.2664V21.4461H10.2181V10.9764H13.3039V12.4091H13.3591C13.9915 11.3117 15.1791 10.6543 16.4449 10.7009C19.7511 10.7009 20.3572 12.85 20.3572 15.7153V21.4461Z" fill="#3C57EF"/>
</svg>
