<svg width="25" height="24" viewBox="0 0 25 24" fill="none" xmlns="http://www.w3.org/2000/svg">
<path fill-rule="evenodd" clip-rule="evenodd" d="M21.9007 14.7722L20.2576 13.1291C19.8801 12.7228 19.6614 12.1942 19.6414 11.64V8.40517C19.6414 4.24607 16.8687 0.703125 11.9394 0.703125C7.01007 0.703125 4.23734 4.14337 4.23734 8.40517V11.9994C4.22783 12.3245 4.10003 12.6349 3.87791 12.8723L1.97808 14.7722C1.78459 14.9618 1.67386 15.2202 1.67 15.491V19.188C1.67 19.7552 2.12978 20.215 2.69694 20.215H8.39645C8.69144 21.9414 10.1879 23.2039 11.9394 23.2039C13.6909 23.2039 15.1873 21.9414 15.4823 20.215H21.1818C21.749 20.215 22.2088 19.7552 22.2088 19.188V15.491C22.2049 15.2202 22.0942 14.9618 21.9007 14.7722H21.9007ZM20.1549 18.1611H3.72385V15.9532L5.3156 14.3101C5.93349 13.6991 6.28426 12.8683 6.29119 11.9995V8.40518C6.29119 5.68378 7.78025 2.75701 11.9393 2.75701C16.0984 2.75701 17.5875 5.78648 17.5875 8.40518V11.64C17.6072 12.7278 18.0277 13.77 18.7685 14.5668L20.1548 15.9532L20.1549 18.1611Z" fill="white"/>
</svg>
