<svg width="19" height="19" viewBox="0 0 19 19" fill="none" xmlns="http://www.w3.org/2000/svg">
<path fill-rule="evenodd" clip-rule="evenodd" d="M13.9246 18.9993C12.8059 18.9993 11.5274 18.6796 10.0891 17.9605C8.33113 17.0815 6.57319 15.803 4.89515 14.125C3.29702 12.5269 1.93861 10.689 1.05964 8.93106C-0.298767 6.13434 -0.378677 3.81705 0.979733 2.53855C1.29936 2.21892 1.77879 2.21892 2.09842 2.53855C2.41805 2.85818 2.41805 3.33761 2.09842 3.65724C1.29936 4.4563 1.45917 6.21425 2.49795 8.29181C3.29701 9.88994 4.49561 11.568 6.01383 13.0862C7.53205 14.6044 9.21009 15.803 10.8082 16.6021C12.8858 17.6409 14.6437 17.8007 15.4428 17.0016C15.7624 16.682 16.2418 16.682 16.5615 17.0016C16.8811 17.3212 16.8811 17.8007 16.5615 18.1203C15.9222 18.6796 15.0433 18.9993 13.9246 18.9993L13.9246 18.9993Z" fill="#3C57EF"/>
<path fill-rule="evenodd" clip-rule="evenodd" d="M5.77409 9.01064C5.45446 9.01064 5.21475 8.85083 5.05493 8.5312C4.81521 8.13167 4.97502 7.65223 5.37456 7.49242L7.21241 6.61345C7.53203 6.45364 7.93157 6.05411 7.85166 5.57467C7.85166 5.33495 7.69185 5.17514 7.53204 5.01533L4.89513 2.29851C4.65541 2.05879 4.25588 1.97888 3.85635 2.05879L3.37691 2.29851L2.09841 3.65692C1.77878 3.97655 1.29935 3.97655 0.979724 3.65692C0.660094 3.33729 0.660094 2.85786 0.979724 2.53823L2.25822 1.25973C2.57785 0.940101 2.97738 0.700391 3.37691 0.620481C4.33579 0.380761 5.29466 0.620481 6.01382 1.25973L8.65073 3.89664C9.05026 4.29617 9.28998 4.85552 9.36989 5.41486C9.5297 6.45364 8.89045 7.57233 7.85167 8.13168L6.01382 9.01065C6.01382 8.93074 5.85401 9.01065 5.7741 9.01065L5.77409 9.01064ZM15.9222 18.2798C15.6825 18.2798 15.5227 18.1999 15.3629 18.0401C15.0432 17.7205 15.0432 17.241 15.3629 16.9214L16.6414 15.6429C16.8012 15.4831 16.8811 15.4032 16.8811 15.1634C16.961 14.7639 16.8811 14.3644 16.6414 14.1247L14.0045 11.4878C13.8446 11.3279 13.6049 11.248 13.4451 11.1681C12.9657 11.0882 12.5661 11.4079 12.4063 11.8074L11.5274 13.6452C11.3675 14.0448 10.8881 14.2046 10.4886 13.9649C10.089 13.8051 9.92923 13.3256 10.169 12.9261L11.0479 11.0882C11.6073 10.0495 12.6461 9.4102 13.7647 9.57001C14.3241 9.64992 14.8035 9.88963 15.2031 10.2892L17.84 12.9261C18.5591 13.6452 18.7989 14.6041 18.4792 15.563C18.3194 15.9625 18.1596 16.3621 17.84 16.6817L16.4816 18.0401C16.3218 18.1999 16.1619 18.2798 15.9222 18.2798L15.9222 18.2798Z" fill="#3C57EF"/>
<path fill-rule="evenodd" clip-rule="evenodd" d="M10.8081 14.0452C10.6483 14.0452 10.4885 13.9653 10.3287 13.8854C9.36978 13.1662 8.41091 12.3672 7.45203 11.4882C6.49315 10.5293 5.69409 9.57047 5.05484 8.61159C4.81512 8.29197 4.89503 7.81253 5.29456 7.4929C5.69409 7.25318 6.17353 7.33309 6.41325 7.65271C7.0525 8.53168 7.77166 9.49056 8.65063 10.2896C9.5296 11.0887 10.4086 11.8877 11.2875 12.527C11.6871 12.7667 11.767 13.2462 11.4474 13.6457C11.3674 13.9653 11.1277 14.0452 10.8081 14.0452Z" fill="#3C57EF"/>
</svg>
