<svg width="25" height="26" viewBox="0 0 25 26" fill="none" xmlns="http://www.w3.org/2000/svg">
<path fill-rule="evenodd" clip-rule="evenodd" d="M12.7001 5.38965C10.36 5.38965 8.46301 7.28664 8.46301 9.62671C8.46301 11.9668 10.36 13.8638 12.7001 13.8638C15.0402 13.8638 16.9371 11.9668 16.9371 9.62671C16.9371 7.28665 15.0401 5.38965 12.7001 5.38965ZM12.7001 11.7452C11.5301 11.7452 10.5816 10.7967 10.5816 9.6267C10.5816 8.45667 11.5301 7.50817 12.7001 7.50817C13.8701 7.50817 14.8186 8.45667 14.8186 9.6267C14.8186 10.7967 13.8701 11.7452 12.7001 11.7452Z" fill="white"/>
<path fill-rule="evenodd" clip-rule="evenodd" d="M12.6999 1.15247C6.26475 1.15247 1.048 6.36919 1.048 12.8044C1.048 19.2395 6.26475 24.4563 12.6999 24.4563C19.1351 24.4563 24.3519 19.2395 24.3519 12.8044C24.366 9.70977 23.143 6.73783 20.9547 4.5496C18.7665 2.36137 15.7945 1.13831 12.6999 1.15247ZM20.5915 18.1537C18.1891 16.7688 15.4726 16.0213 12.6999 15.9822C9.92729 16.0212 7.21072 16.7688 4.8084 18.1537C3.72931 16.5793 3.15649 14.713 3.16654 12.8044C3.16654 7.53924 7.43479 3.271 12.6999 3.27101C17.9651 3.27101 22.2333 7.53924 22.2333 12.8044C22.2434 14.713 21.6706 16.5793 20.5915 18.1537L20.5915 18.1537Z" fill="white"/>
</svg>
