<svg width="24" height="24" viewBox="0 0 24 24" fill="none" xmlns="http://www.w3.org/2000/svg">
<path fill-rule="evenodd" clip-rule="evenodd" d="M20.1249 14.6079L22.8832 13.8556C23.0835 12.6267 23.0835 11.3734 22.8832 10.1444L20.1249 9.39211C19.8589 9.31874 19.641 9.12774 19.5335 8.87362C19.426 8.6195 19.4406 8.33016 19.5732 8.08816L20.9774 5.58056C20.2819 4.58419 19.4161 3.71834 18.4197 3.02281L15.9121 4.42707L15.5109 4.52737C15.0958 4.54363 14.7232 4.27453 14.6081 3.87539L13.8559 1.11703C12.6269 0.916719 11.3736 0.916719 10.1446 1.11703L9.39232 3.87539C9.27725 4.27453 8.90466 4.54362 8.48958 4.52737L8.08836 4.42707L5.58076 3.02281C4.58439 3.71835 3.71854 4.5842 3.02301 5.58056L4.42727 8.08816C4.55984 8.33016 4.57445 8.6195 4.46694 8.87362C4.35943 9.12774 4.14159 9.31874 3.8756 9.39211L1.11724 10.1444C0.916933 11.3734 0.916933 12.6267 1.11724 13.8556L3.8756 14.6079C4.1416 14.6813 4.35943 14.8723 4.46694 15.1264C4.57445 15.3805 4.55984 15.6699 4.42727 15.9119L3.02301 18.4195C3.71855 19.4158 4.5844 20.2817 5.58077 20.9772L8.08837 19.573L8.48959 19.4726C8.90467 19.4564 9.27726 19.7255 9.39233 20.1246L10.1446 22.883C11.3736 23.0833 12.6269 23.0833 13.8559 22.883L14.6081 20.1246C14.7232 19.7255 15.0958 19.4564 15.5109 19.4726L15.9121 19.573L18.4197 20.9772C19.4161 20.2817 20.2819 19.4158 20.9775 18.4195L19.5732 15.9119C19.4406 15.6699 19.426 15.3805 19.5335 15.1264C19.641 14.8723 19.8589 14.6813 20.1249 14.6079L20.1249 14.6079ZM19.523 12.652H19.4227C18.6546 12.9514 18.0397 13.5481 17.7176 14.307C17.379 15.0777 17.3974 15.9584 17.7677 16.7143H17.8179V16.8146L18.5701 18.0684C18.4631 18.2264 18.3269 18.3625 18.1689 18.4696L16.9151 17.7174H16.7647C16.3771 17.5176 15.9469 17.4143 15.5109 17.4164C14.259 17.4207 13.1405 18.1996 12.7024 19.3724V19.5228L12.251 21.0274H11.7495L11.3483 19.573V19.4727C10.9206 18.2629 9.77273 17.4574 8.48958 17.4666C8.05352 17.4645 7.62339 17.5677 7.23578 17.7675H7.08532L5.83152 18.5198C5.67355 18.4127 5.53739 18.2765 5.4303 18.1186L6.18258 16.8648V16.7645H6.23273C6.60305 16.0086 6.6214 15.1278 6.28288 14.3572C5.96072 13.5983 5.34589 13.0015 4.57771 12.7021H4.42725L2.97284 12.2508V11.7493L4.42725 11.348H4.57771C5.34589 11.0487 5.96072 10.4519 6.28288 9.69302C6.6214 8.92234 6.60305 8.04163 6.23273 7.28572H6.18258V7.18542L5.4303 5.93162L5.83152 5.5304L7.08532 6.28268H7.23578C7.62339 6.48246 8.05352 6.58569 8.48958 6.58359C9.74147 6.57931 10.8599 5.80038 11.2981 4.62766V4.4772L11.7495 2.97264H12.251L12.6522 4.42705V4.52735C13.0799 5.73716 14.2277 6.54265 15.5109 6.53343C15.9469 6.53553 16.3771 6.4323 16.7647 6.23252H16.9151L18.1689 5.48024C18.3269 5.58732 18.4631 5.72348 18.5702 5.88146L17.8179 7.13526V7.23556H17.7677C17.3974 7.99147 17.3791 8.87218 17.7176 9.64286C18.0397 10.4018 18.6546 10.9985 19.4227 11.2979H19.5732L21.0276 11.6991V12.2006L19.5732 12.6018L19.523 12.652Z" fill="white"/>
<path fill-rule="evenodd" clip-rule="evenodd" d="M12.0007 7.48633C9.50784 7.48633 7.487 9.50718 7.487 12C7.487 14.4928 9.50785 16.5137 12.0007 16.5137C14.4935 16.5137 16.5144 14.4928 16.5144 12C16.5144 9.50717 14.4935 7.48633 12.0007 7.48633ZM12.0007 14.5076C10.6158 14.5076 9.49308 13.3849 9.49308 12C9.49308 10.6151 10.6158 9.49242 12.0007 9.49242C13.3856 9.49242 14.5083 10.6151 14.5083 12C14.5083 13.3849 13.3856 14.5076 12.0007 14.5076Z" fill="white"/>
</svg>
