<svg width="25" height="27" viewBox="0 0 25 27" fill="none" xmlns="http://www.w3.org/2000/svg">
<path fill-rule="evenodd" clip-rule="evenodd" d="M23.9042 24.8632L13.3386 5.39803L15.1327 2.0928C15.3276 1.73372 15.1945 1.28466 14.8355 1.08979C14.4763 0.894817 14.0273 1.02794 13.8325 1.38702L12.4969 3.84755L11.1614 1.38697C10.9665 1.02789 10.5174 0.894867 10.1584 1.08974C9.79928 1.28461 9.66626 1.73367 9.86113 2.09275L11.6554 5.39842L1.08961 24.8632C0.96517 25.0924 0.97068 25.3702 1.10399 25.5943C1.23735 25.8184 1.47886 25.9558 1.73973 25.9558H17.0175C17.0189 25.9558 23.2541 25.9558 23.2541 25.9558C23.5149 25.9558 23.7564 25.8184 23.8898 25.5943C24.0231 25.3703 24.0285 25.0924 23.9042 24.8632ZM17.4614 24.4764L13.147 16.5278C13.0176 16.2894 12.7682 16.141 12.4969 16.141C12.2257 16.141 11.9762 16.2894 11.8468 16.5278L7.53249 24.4764H2.98294L12.4971 6.94886L22.0109 24.4764H17.4614Z" fill="white"/>
<path d="M23.9042 24.8632L24.036 24.7916L24.036 24.7916L23.9042 24.8632ZM13.3386 5.39803L13.2068 5.32647L13.168 5.39803L13.2068 5.46958L13.3386 5.39803ZM15.1327 2.0928L15.2645 2.16435L15.2645 2.16434L15.1327 2.0928ZM14.8355 1.08979L14.7639 1.22161L14.7639 1.22162L14.8355 1.08979ZM13.8325 1.38702L13.9643 1.45857L13.9643 1.45856L13.8325 1.38702ZM12.4969 3.84755L12.3651 3.9191L12.4969 4.16199L12.6287 3.9191L12.4969 3.84755ZM11.1614 1.38697L11.0295 1.45851L11.0295 1.45852L11.1614 1.38697ZM10.1584 1.08974L10.2299 1.22157L10.2299 1.22157L10.1584 1.08974ZM9.86113 2.09275L9.72929 2.16429L9.7293 2.1643L9.86113 2.09275ZM11.6554 5.39842L11.7872 5.46998L11.8261 5.39842L11.7872 5.32686L11.6554 5.39842ZM1.08961 24.8632L1.22144 24.9348L1.22144 24.9348L1.08961 24.8632ZM1.10399 25.5943L0.975072 25.671L0.975086 25.671L1.10399 25.5943ZM23.8898 25.5943L24.0187 25.6711L24.0188 25.671L23.8898 25.5943ZM17.4614 24.4764L17.3295 24.5479L17.3721 24.6264H17.4614V24.4764ZM13.147 16.5278L13.2789 16.4563L13.2789 16.4563L13.147 16.5278ZM11.8468 16.5278L11.9787 16.5994L11.9787 16.5994L11.8468 16.5278ZM7.53249 24.4764V24.6264H7.62174L7.66432 24.5479L7.53249 24.4764ZM2.98294 24.4764L2.85111 24.4048L2.73084 24.6264H2.98294V24.4764ZM12.4971 6.94886L12.629 6.8773L12.4971 6.63443L12.3653 6.8773L12.4971 6.94886ZM22.0109 24.4764V24.6264H22.263L22.1427 24.4048L22.0109 24.4764ZM24.036 24.7916L13.4705 5.32647L13.2068 5.46958L23.7723 24.9348L24.036 24.7916ZM13.4705 5.46958L15.2645 2.16435L15.0009 2.02124L13.2068 5.32647L13.4705 5.46958ZM15.2645 2.16434C15.4989 1.73247 15.3389 1.19235 14.907 0.957955L14.7639 1.22162C15.0501 1.37696 15.1562 1.73496 15.0009 2.02125L15.2645 2.16434ZM14.907 0.957961C14.4751 0.723457 13.935 0.883577 13.7006 1.31547L13.9643 1.45856C14.1197 1.1723 14.4776 1.06618 14.7639 1.22161L14.907 0.957961ZM13.7006 1.31546L12.3651 3.77599L12.6287 3.9191L13.9643 1.45857L13.7006 1.31546ZM12.6287 3.77599L11.2932 1.31541L11.0295 1.45852L12.3651 3.9191L12.6287 3.77599ZM11.2932 1.31542C11.0588 0.883501 10.5186 0.723524 10.0868 0.957907L10.2299 1.22157C10.5161 1.06621 10.8742 1.17227 11.0295 1.45851L11.2932 1.31542ZM10.0868 0.9579C9.65489 1.1923 9.49492 1.73243 9.72929 2.16429L9.99297 2.0212C9.83759 1.7349 9.94367 1.37691 10.2299 1.22157L10.0868 0.9579ZM9.7293 2.1643L11.5236 5.46997L11.7872 5.32686L9.99296 2.02119L9.7293 2.1643ZM11.5236 5.32686L0.95778 24.7916L1.22144 24.9348L11.7872 5.46998L11.5236 5.32686ZM0.957782 24.7916C0.808104 25.0674 0.814739 25.4015 0.975072 25.671L1.23291 25.5176C1.12662 25.339 1.12224 25.1175 1.22144 24.9348L0.957782 24.7916ZM0.975086 25.671C1.13549 25.9406 1.42597 26.1058 1.73973 26.1058V25.8058C1.53175 25.8058 1.33921 25.6963 1.23289 25.5176L0.975086 25.671ZM1.73973 26.1058H17.0175V25.8058H1.73973V26.1058ZM17.0175 26.1058C17.0175 26.1058 17.0176 26.1058 17.0176 26.1058C17.0177 26.1058 17.0177 26.1058 17.0178 26.1058C17.0179 26.1058 17.0181 26.1058 17.0182 26.1058C17.0183 26.1058 17.0185 26.1058 17.0187 26.1058C17.0189 26.1058 17.0191 26.1058 17.0194 26.1058C17.0196 26.1058 17.0199 26.1058 17.0201 26.1058C17.0204 26.1058 17.0207 26.1058 17.0211 26.1058C17.0214 26.1058 17.0217 26.1058 17.0221 26.1058C17.0225 26.1058 17.0229 26.1058 17.0233 26.1058C17.0237 26.1058 17.0242 26.1058 17.0247 26.1058C17.0251 26.1058 17.0256 26.1058 17.0261 26.1058C17.0267 26.1058 17.0272 26.1058 17.0278 26.1058C17.0283 26.1058 17.0289 26.1058 17.0295 26.1058C17.0301 26.1058 17.0307 26.1058 17.0314 26.1058C17.032 26.1058 17.0327 26.1058 17.0334 26.1058C17.0341 26.1058 17.0348 26.1058 17.0356 26.1058C17.0363 26.1058 17.0371 26.1058 17.0378 26.1058C17.0386 26.1058 17.0394 26.1058 17.0403 26.1058C17.0411 26.1058 17.0419 26.1058 17.0428 26.1058C17.0437 26.1058 17.0446 26.1058 17.0455 26.1058C17.0464 26.1058 17.0474 26.1058 17.0483 26.1058C17.0493 26.1058 17.0503 26.1058 17.0513 26.1058C17.0523 26.1058 17.0533 26.1058 17.0543 26.1058C17.0554 26.1058 17.0565 26.1058 17.0575 26.1058C17.0586 26.1058 17.0597 26.1058 17.0609 26.1058C17.062 26.1058 17.0632 26.1058 17.0643 26.1058C17.0655 26.1058 17.0667 26.1058 17.0679 26.1058C17.0692 26.1058 17.0704 26.1058 17.0717 26.1058C17.0729 26.1058 17.0742 26.1058 17.0755 26.1058C17.0768 26.1058 17.0781 26.1058 17.0795 26.1058C17.0808 26.1058 17.0822 26.1058 17.0836 26.1058C17.085 26.1058 17.0864 26.1058 17.0878 26.1058C17.0892 26.1058 17.0907 26.1058 17.0922 26.1058C17.0936 26.1058 17.0951 26.1058 17.0966 26.1058C17.0982 26.1058 17.0997 26.1058 17.1012 26.1058C17.1028 26.1058 17.1044 26.1058 17.106 26.1058C17.1076 26.1058 17.1092 26.1058 17.1108 26.1058C17.1124 26.1058 17.1141 26.1058 17.1158 26.1058C17.1174 26.1058 17.1191 26.1058 17.1209 26.1058C17.1226 26.1058 17.1243 26.1058 17.1261 26.1058C17.1278 26.1058 17.1296 26.1058 17.1314 26.1058C17.1332 26.1058 17.135 26.1058 17.1368 26.1058C17.1387 26.1058 17.1405 26.1058 17.1424 26.1058C17.1443 26.1058 17.1462 26.1058 17.1481 26.1058C17.15 26.1058 17.152 26.1058 17.1539 26.1058C17.1559 26.1058 17.1578 26.1058 17.1598 26.1058C17.1618 26.1058 17.1638 26.1058 17.1659 26.1058C17.1679 26.1058 17.17 26.1058 17.172 26.1058C17.1741 26.1058 17.1762 26.1058 17.1783 26.1058C17.1804 26.1058 17.1825 26.1058 17.1847 26.1058C17.1868 26.1058 17.189 26.1058 17.1912 26.1058C17.1934 26.1058 17.1956 26.1058 17.1978 26.1058C17.2 26.1058 17.2023 26.1058 17.2045 26.1058C17.2068 26.1058 17.2091 26.1058 17.2114 26.1058C17.2137 26.1058 17.216 26.1058 17.2183 26.1058C17.2207 26.1058 17.223 26.1058 17.2254 26.1058C17.2278 26.1058 17.2302 26.1058 17.2326 26.1058C17.235 26.1058 17.2374 26.1058 17.2399 26.1058C17.2423 26.1058 17.2448 26.1058 17.2473 26.1058C17.2498 26.1058 17.2523 26.1058 17.2548 26.1058C17.2573 26.1058 17.2599 26.1058 17.2624 26.1058C17.265 26.1058 17.2675 26.1058 17.2701 26.1058C17.2727 26.1058 17.2753 26.1058 17.278 26.1058C17.2806 26.1058 17.2833 26.1058 17.2859 26.1058C17.2886 26.1058 17.2913 26.1058 17.294 26.1058C17.2967 26.1058 17.2994 26.1058 17.3021 26.1058C17.3049 26.1058 17.3076 26.1058 17.3104 26.1058C17.3132 26.1058 17.316 26.1058 17.3188 26.1058C17.3216 26.1058 17.3244 26.1058 17.3272 26.1058C17.3301 26.1058 17.3329 26.1058 17.3358 26.1058C17.3387 26.1058 17.3416 26.1058 17.3445 26.1058C17.3474 26.1058 17.3503 26.1058 17.3533 26.1058C17.3562 26.1058 17.3592 26.1058 17.3622 26.1058C17.3652 26.1058 17.3681 26.1058 17.3712 26.1058C17.3742 26.1058 17.3772 26.1058 17.3803 26.1058C17.3833 26.1058 17.3864 26.1058 17.3894 26.1058C17.3925 26.1058 17.3956 26.1058 17.3987 26.1058C17.4018 26.1058 17.405 26.1058 17.4081 26.1058C17.4113 26.1058 17.4144 26.1058 17.4176 26.1058C17.4208 26.1058 17.424 26.1058 17.4272 26.1058C17.4304 26.1058 17.4337 26.1058 17.4369 26.1058C17.4401 26.1058 17.4434 26.1058 17.4467 26.1058C17.45 26.1058 17.4533 26.1058 17.4566 26.1058C17.4599 26.1058 17.4632 26.1058 17.4665 26.1058C17.4699 26.1058 17.4732 26.1058 17.4766 26.1058C17.48 26.1058 17.4834 26.1058 17.4868 26.1058C17.4902 26.1058 17.4936 26.1058 17.4971 26.1058C17.5005 26.1058 17.5039 26.1058 17.5074 26.1058C17.5109 26.1058 17.5144 26.1058 17.5179 26.1058C17.5214 26.1058 17.5249 26.1058 17.5284 26.1058C17.5319 26.1058 17.5355 26.1058 17.539 26.1058C17.5426 26.1058 17.5462 26.1058 17.5498 26.1058C17.5534 26.1058 17.557 26.1058 17.5606 26.1058C17.5642 26.1058 17.5679 26.1058 17.5715 26.1058C17.5752 26.1058 17.5788 26.1058 17.5825 26.1058C17.5862 26.1058 17.5899 26.1058 17.5936 26.1058C17.5973 26.1058 17.601 26.1058 17.6048 26.1058C17.6085 26.1058 17.6123 26.1058 17.6161 26.1058C17.6198 26.1058 17.6236 26.1058 17.6274 26.1058C17.6312 26.1058 17.635 26.1058 17.6389 26.1058C17.6427 26.1058 17.6465 26.1058 17.6504 26.1058C17.6543 26.1058 17.6581 26.1058 17.662 26.1058C17.6659 26.1058 17.6698 26.1058 17.6737 26.1058C17.6776 26.1058 17.6816 26.1058 17.6855 26.1058C17.6894 26.1058 17.6934 26.1058 17.6974 26.1058C17.7014 26.1058 17.7053 26.1058 17.7093 26.1058C17.7133 26.1058 17.7174 26.1058 17.7214 26.1058C17.7254 26.1058 17.7295 26.1058 17.7335 26.1058C17.7376 26.1058 17.7416 26.1058 17.7457 26.1058C17.7498 26.1058 17.7539 26.1058 17.758 26.1058C17.7621 26.1058 17.7662 26.1058 17.7704 26.1058C17.7745 26.1058 17.7787 26.1058 17.7828 26.1058C17.787 26.1058 17.7912 26.1058 17.7954 26.1058C17.7996 26.1058 17.8038 26.1058 17.808 26.1058C17.8122 26.1058 17.8164 26.1058 17.8207 26.1058C17.8249 26.1058 17.8292 26.1058 17.8334 26.1058C17.8377 26.1058 17.842 26.1058 17.8463 26.1058C17.8506 26.1058 17.8549 26.1058 17.8592 26.1058C17.8635 26.1058 17.8679 26.1058 17.8722 26.1058C17.8766 26.1058 17.8809 26.1058 17.8853 26.1058C17.8897 26.1058 17.894 26.1058 17.8984 26.1058C17.9028 26.1058 17.9072 26.1058 17.9117 26.1058C17.9161 26.1058 17.9205 26.1058 17.925 26.1058C17.9294 26.1058 17.9339 26.1058 17.9384 26.1058C17.9428 26.1058 17.9473 26.1058 17.9518 26.1058C17.9563 26.1058 17.9608 26.1058 17.9653 26.1058C17.9699 26.1058 17.9744 26.1058 17.9789 26.1058C17.9835 26.1058 17.988 26.1058 17.9926 26.1058C17.9972 26.1058 18.0017 26.1058 18.0063 26.1058C18.0109 26.1058 18.0155 26.1058 18.0201 26.1058C18.0248 26.1058 18.0294 26.1058 18.034 26.1058C18.0387 26.1058 18.0433 26.1058 18.048 26.1058C18.0526 26.1058 18.0573 26.1058 18.062 26.1058C18.0667 26.1058 18.0714 26.1058 18.0761 26.1058C18.0808 26.1058 18.0855 26.1058 18.0902 26.1058C18.095 26.1058 18.0997 26.1058 18.1045 26.1058C18.1092 26.1058 18.114 26.1058 18.1188 26.1058C18.1235 26.1058 18.1283 26.1058 18.1331 26.1058C18.1379 26.1058 18.1427 26.1058 18.1475 26.1058C18.1524 26.1058 18.1572 26.1058 18.162 26.1058C18.1669 26.1058 18.1717 26.1058 18.1766 26.1058C18.1814 26.1058 18.1863 26.1058 18.1912 26.1058C18.1961 26.1058 18.201 26.1058 18.2059 26.1058C18.2108 26.1058 18.2157 26.1058 18.2206 26.1058C18.2255 26.1058 18.2305 26.1058 18.2354 26.1058C18.2404 26.1058 18.2453 26.1058 18.2503 26.1058C18.2553 26.1058 18.2602 26.1058 18.2652 26.1058C18.2702 26.1058 18.2752 26.1058 18.2802 26.1058C18.2852 26.1058 18.2902 26.1058 18.2953 26.1058C18.3003 26.1058 18.3053 26.1058 18.3104 26.1058C18.3154 26.1058 18.3205 26.1058 18.3255 26.1058C18.3306 26.1058 18.3357 26.1058 18.3408 26.1058C18.3459 26.1058 18.351 26.1058 18.3561 26.1058C18.3612 26.1058 18.3663 26.1058 18.3714 26.1058C18.3765 26.1058 18.3817 26.1058 18.3868 26.1058C18.3919 26.1058 18.3971 26.1058 18.4023 26.1058C18.4074 26.1058 18.4126 26.1058 18.4178 26.1058C18.4229 26.1058 18.4281 26.1058 18.4333 26.1058C18.4385 26.1058 18.4437 26.1058 18.449 26.1058C18.4542 26.1058 18.4594 26.1058 18.4646 26.1058C18.4699 26.1058 18.4751 26.1058 18.4804 26.1058C18.4856 26.1058 18.4909 26.1058 18.4961 26.1058C18.5014 26.1058 18.5067 26.1058 18.512 26.1058C18.5173 26.1058 18.5226 26.1058 18.5279 26.1058C18.5332 26.1058 18.5385 26.1058 18.5438 26.1058C18.5491 26.1058 18.5544 26.1058 18.5598 26.1058C18.5651 26.1058 18.5705 26.1058 18.5758 26.1058C18.5812 26.1058 18.5865 26.1058 18.5919 26.1058C18.5973 26.1058 18.6027 26.1058 18.608 26.1058C18.6134 26.1058 18.6188 26.1058 18.6242 26.1058C18.6296 26.1058 18.635 26.1058 18.6405 26.1058C18.6459 26.1058 18.6513 26.1058 18.6567 26.1058C18.6622 26.1058 18.6676 26.1058 18.6731 26.1058C18.6785 26.1058 18.684 26.1058 18.6894 26.1058C18.6949 26.1058 18.7004 26.1058 18.7059 26.1058C18.7113 26.1058 18.7168 26.1058 18.7223 26.1058C18.7278 26.1058 18.7333 26.1058 18.7388 26.1058C18.7444 26.1058 18.7499 26.1058 18.7554 26.1058C18.7609 26.1058 18.7664 26.1058 18.772 26.1058C18.7775 26.1058 18.7831 26.1058 18.7886 26.1058C18.7942 26.1058 18.7997 26.1058 18.8053 26.1058C18.8109 26.1058 18.8165 26.1058 18.822 26.1058C18.8276 26.1058 18.8332 26.1058 18.8388 26.1058C18.8444 26.1058 18.85 26.1058 18.8556 26.1058C18.8612 26.1058 18.8668 26.1058 18.8724 26.1058C18.8781 26.1058 18.8837 26.1058 18.8893 26.1058C18.895 26.1058 18.9006 26.1058 18.9063 26.1058C18.9119 26.1058 18.9176 26.1058 18.9232 26.1058C18.9289 26.1058 18.9345 26.1058 18.9402 26.1058C18.9459 26.1058 18.9516 26.1058 18.9573 26.1058C18.9629 26.1058 18.9686 26.1058 18.9743 26.1058C18.98 26.1058 18.9857 26.1058 18.9914 26.1058C18.9972 26.1058 19.0029 26.1058 19.0086 26.1058C19.0143 26.1058 19.02 26.1058 19.0258 26.1058C19.0315 26.1058 19.0372 26.1058 19.043 26.1058C19.0487 26.1058 19.0545 26.1058 19.0602 26.1058C19.066 26.1058 19.0718 26.1058 19.0775 26.1058C19.0833 26.1058 19.0891 26.1058 19.0948 26.1058C19.1006 26.1058 19.1064 26.1058 19.1122 26.1058C19.118 26.1058 19.1238 26.1058 19.1296 26.1058C19.1354 26.1058 19.1412 26.1058 19.147 26.1058C19.1528 26.1058 19.1586 26.1058 19.1644 26.1058C19.1702 26.1058 19.1761 26.1058 19.1819 26.1058C19.1877 26.1058 19.1936 26.1058 19.1994 26.1058C19.2052 26.1058 19.2111 26.1058 19.2169 26.1058C19.2228 26.1058 19.2286 26.1058 19.2345 26.1058C19.2403 26.1058 19.2462 26.1058 19.2521 26.1058C19.2579 26.1058 19.2638 26.1058 19.2697 26.1058C19.2756 26.1058 19.2814 26.1058 19.2873 26.1058C19.2932 26.1058 19.2991 26.1058 19.305 26.1058C19.3109 26.1058 19.3168 26.1058 19.3227 26.1058C19.3286 26.1058 19.3345 26.1058 19.3404 26.1058C19.3463 26.1058 19.3522 26.1058 19.3581 26.1058C19.3641 26.1058 19.37 26.1058 19.3759 26.1058C19.3818 26.1058 19.3878 26.1058 19.3937 26.1058C19.3996 26.1058 19.4056 26.1058 19.4115 26.1058C19.4175 26.1058 19.4234 26.1058 19.4293 26.1058C19.4353 26.1058 19.4412 26.1058 19.4472 26.1058C19.4532 26.1058 19.4591 26.1058 19.4651 26.1058C19.471 26.1058 19.477 26.1058 19.483 26.1058C19.489 26.1058 19.4949 26.1058 19.5009 26.1058C19.5069 26.1058 19.5129 26.1058 19.5188 26.1058C19.5248 26.1058 19.5308 26.1058 19.5368 26.1058C19.5428 26.1058 19.5488 26.1058 19.5548 26.1058C19.5608 26.1058 19.5668 26.1058 19.5728 26.1058C19.5788 26.1058 19.5848 26.1058 19.5908 26.1058C19.5968 26.1058 19.6028 26.1058 19.6088 26.1058C19.6148 26.1058 19.6208 26.1058 19.6268 26.1058C19.6329 26.1058 19.6389 26.1058 19.6449 26.1058C19.6509 26.1058 19.6569 26.1058 19.663 26.1058C19.669 26.1058 19.675 26.1058 19.6811 26.1058C19.6871 26.1058 19.6931 26.1058 19.6992 26.1058C19.7052 26.1058 19.7112 26.1058 19.7173 26.1058C19.7233 26.1058 19.7294 26.1058 19.7354 26.1058C19.7415 26.1058 19.7475 26.1058 19.7535 26.1058C19.7596 26.1058 19.7656 26.1058 19.7717 26.1058C19.7778 26.1058 19.7838 26.1058 19.7899 26.1058C19.7959 26.1058 19.802 26.1058 19.808 26.1058C19.8141 26.1058 19.8202 26.1058 19.8262 26.1058C19.8323 26.1058 19.8384 26.1058 19.8444 26.1058C19.8505 26.1058 19.8566 26.1058 19.8626 26.1058C19.8687 26.1058 19.8748 26.1058 19.8808 26.1058C19.8869 26.1058 19.893 26.1058 19.899 26.1058C19.9051 26.1058 19.9112 26.1058 19.9173 26.1058C19.9233 26.1058 19.9294 26.1058 19.9355 26.1058C19.9416 26.1058 19.9477 26.1058 19.9537 26.1058C19.9598 26.1058 19.9659 26.1058 19.972 26.1058C19.9781 26.1058 19.9842 26.1058 19.9902 26.1058C19.9963 26.1058 20.0024 26.1058 20.0085 26.1058C20.0146 26.1058 20.0207 26.1058 20.0267 26.1058C20.0328 26.1058 20.0389 26.1058 20.045 26.1058C20.0511 26.1058 20.0572 26.1058 20.0633 26.1058C20.0694 26.1058 20.0754 26.1058 20.0815 26.1058C20.0876 26.1058 20.0937 26.1058 20.0998 26.1058C20.1059 26.1058 20.112 26.1058 20.1181 26.1058C20.1242 26.1058 20.1303 26.1058 20.1363 26.1058C20.1424 26.1058 20.1485 26.1058 20.1546 26.1058C20.1607 26.1058 20.1668 26.1058 20.1729 26.1058C20.179 26.1058 20.1851 26.1058 20.1911 26.1058C20.1972 26.1058 20.2033 26.1058 20.2094 26.1058C20.2155 26.1058 20.2216 26.1058 20.2277 26.1058C20.2338 26.1058 20.2399 26.1058 20.2459 26.1058C20.252 26.1058 20.2581 26.1058 20.2642 26.1058C20.2703 26.1058 20.2764 26.1058 20.2824 26.1058C20.2885 26.1058 20.2946 26.1058 20.3007 26.1058C20.3068 26.1058 20.3129 26.1058 20.3189 26.1058C20.325 26.1058 20.3311 26.1058 20.3372 26.1058C20.3433 26.1058 20.3493 26.1058 20.3554 26.1058C20.3615 26.1058 20.3676 26.1058 20.3736 26.1058C20.3797 26.1058 20.3858 26.1058 20.3919 26.1058C20.3979 26.1058 20.404 26.1058 20.4101 26.1058C20.4161 26.1058 20.4222 26.1058 20.4283 26.1058C20.4343 26.1058 20.4404 26.1058 20.4465 26.1058C20.4525 26.1058 20.4586 26.1058 20.4646 26.1058C20.4707 26.1058 20.4768 26.1058 20.4828 26.1058C20.4889 26.1058 20.4949 26.1058 20.501 26.1058C20.507 26.1058 20.5131 26.1058 20.5191 26.1058C20.5252 26.1058 20.5312 26.1058 20.5373 26.1058C20.5433 26.1058 20.5494 26.1058 20.5554 26.1058C20.5614 26.1058 20.5675 26.1058 20.5735 26.1058C20.5795 26.1058 20.5856 26.1058 20.5916 26.1058C20.5976 26.1058 20.6037 26.1058 20.6097 26.1058C20.6157 26.1058 20.6218 26.1058 20.6278 26.1058C20.6338 26.1058 20.6398 26.1058 20.6458 26.1058C20.6518 26.1058 20.6579 26.1058 20.6639 26.1058C20.6699 26.1058 20.6759 26.1058 20.6819 26.1058C20.6879 26.1058 20.6939 26.1058 20.6999 26.1058C20.7059 26.1058 20.7119 26.1058 20.7179 26.1058C20.7239 26.1058 20.7299 26.1058 20.7359 26.1058C20.7419 26.1058 20.7478 26.1058 20.7538 26.1058C20.7598 26.1058 20.7658 26.1058 20.7718 26.1058C20.7777 26.1058 20.7837 26.1058 20.7897 26.1058C20.7957 26.1058 20.8016 26.1058 20.8076 26.1058C20.8135 26.1058 20.8195 26.1058 20.8255 26.1058C20.8314 26.1058 20.8374 26.1058 20.8433 26.1058C20.8493 26.1058 20.8552 26.1058 20.8611 26.1058C20.8671 26.1058 20.873 26.1058 20.879 26.1058C20.8849 26.1058 20.8908 26.1058 20.8967 26.1058C20.9027 26.1058 20.9086 26.1058 20.9145 26.1058C20.9204 26.1058 20.9263 26.1058 20.9323 26.1058C20.9382 26.1058 20.9441 26.1058 20.95 26.1058C20.9559 26.1058 20.9618 26.1058 20.9677 26.1058C20.9736 26.1058 20.9794 26.1058 20.9853 26.1058C20.9912 26.1058 20.9971 26.1058 21.003 26.1058C21.0088 26.1058 21.0147 26.1058 21.0206 26.1058C21.0264 26.1058 21.0323 26.1058 21.0382 26.1058C21.044 26.1058 21.0499 26.1058 21.0557 26.1058C21.0616 26.1058 21.0674 26.1058 21.0733 26.1058C21.0791 26.1058 21.0849 26.1058 21.0908 26.1058C21.0966 26.1058 21.1024 26.1058 21.1082 26.1058C21.114 26.1058 21.1199 26.1058 21.1257 26.1058C21.1315 26.1058 21.1373 26.1058 21.1431 26.1058C21.1489 26.1058 21.1547 26.1058 21.1604 26.1058C21.1662 26.1058 21.172 26.1058 21.1778 26.1058C21.1836 26.1058 21.1893 26.1058 21.1951 26.1058C21.2009 26.1058 21.2066 26.1058 21.2124 26.1058C21.2181 26.1058 21.2239 26.1058 21.2296 26.1058C21.2354 26.1058 21.2411 26.1058 21.2469 26.1058C21.2526 26.1058 21.2583 26.1058 21.264 26.1058C21.2698 26.1058 21.2755 26.1058 21.2812 26.1058C21.2869 26.1058 21.2926 26.1058 21.2983 26.1058C21.304 26.1058 21.3097 26.1058 21.3154 26.1058C21.321 26.1058 21.3267 26.1058 21.3324 26.1058C21.3381 26.1058 21.3437 26.1058 21.3494 26.1058C21.3551 26.1058 21.3607 26.1058 21.3664 26.1058C21.372 26.1058 21.3776 26.1058 21.3833 26.1058C21.3889 26.1058 21.3945 26.1058 21.4002 26.1058C21.4058 26.1058 21.4114 26.1058 21.417 26.1058C21.4226 26.1058 21.4282 26.1058 21.4338 26.1058C21.4394 26.1058 21.445 26.1058 21.4506 26.1058C21.4561 26.1058 21.4617 26.1058 21.4673 26.1058C21.4729 26.1058 21.4784 26.1058 21.484 26.1058C21.4895 26.1058 21.4951 26.1058 21.5006 26.1058C21.5061 26.1058 21.5117 26.1058 21.5172 26.1058C21.5227 26.1058 21.5282 26.1058 21.5337 26.1058C21.5393 26.1058 21.5448 26.1058 21.5503 26.1058C21.5557 26.1058 21.5612 26.1058 21.5667 26.1058C21.5722 26.1058 21.5777 26.1058 21.5831 26.1058C21.5886 26.1058 21.5941 26.1058 21.5995 26.1058C21.605 26.1058 21.6104 26.1058 21.6158 26.1058C21.6213 26.1058 21.6267 26.1058 21.6321 26.1058C21.6375 26.1058 21.6429 26.1058 21.6483 26.1058C21.6537 26.1058 21.6591 26.1058 21.6645 26.1058C21.6699 26.1058 21.6753 26.1058 21.6807 26.1058C21.686 26.1058 21.6914 26.1058 21.6967 26.1058C21.7021 26.1058 21.7074 26.1058 21.7128 26.1058C21.7181 26.1058 21.7234 26.1058 21.7288 26.1058C21.7341 26.1058 21.7394 26.1058 21.7447 26.1058C21.75 26.1058 21.7553 26.1058 21.7606 26.1058C21.7659 26.1058 21.7711 26.1058 21.7764 26.1058C21.7817 26.1058 21.7869 26.1058 21.7922 26.1058C21.7974 26.1058 21.8027 26.1058 21.8079 26.1058C21.8131 26.1058 21.8184 26.1058 21.8236 26.1058C21.8288 26.1058 21.834 26.1058 21.8392 26.1058C21.8444 26.1058 21.8496 26.1058 21.8548 26.1058C21.8599 26.1058 21.8651 26.1058 21.8703 26.1058C21.8754 26.1058 21.8806 26.1058 21.8857 26.1058C21.8909 26.1058 21.896 26.1058 21.9011 26.1058C21.9062 26.1058 21.9114 26.1058 21.9165 26.1058C21.9216 26.1058 21.9267 26.1058 21.9317 26.1058C21.9368 26.1058 21.9419 26.1058 21.947 26.1058C21.952 26.1058 21.9571 26.1058 21.9621 26.1058C21.9672 26.1058 21.9722 26.1058 21.9772 26.1058C21.9823 26.1058 21.9873 26.1058 21.9923 26.1058C21.9973 26.1058 22.0023 26.1058 22.0073 26.1058C22.0123 26.1058 22.0172 26.1058 22.0222 26.1058C22.0272 26.1058 22.0321 26.1058 22.0371 26.1058C22.042 26.1058 22.0469 26.1058 22.0519 26.1058C22.0568 26.1058 22.0617 26.1058 22.0666 26.1058C22.0715 26.1058 22.0764 26.1058 22.0813 26.1058C22.0862 26.1058 22.091 26.1058 22.0959 26.1058C22.1008 26.1058 22.1056 26.1058 22.1104 26.1058C22.1153 26.1058 22.1201 26.1058 22.1249 26.1058C22.1297 26.1058 22.1345 26.1058 22.1393 26.1058C22.1441 26.1058 22.1489 26.1058 22.1537 26.1058C22.1585 26.1058 22.1632 26.1058 22.168 26.1058C22.1727 26.1058 22.1775 26.1058 22.1822 26.1058C22.1869 26.1058 22.1917 26.1058 22.1964 26.1058C22.2011 26.1058 22.2058 26.1058 22.2104 26.1058C22.2151 26.1058 22.2198 26.1058 22.2245 26.1058C22.2291 26.1058 22.2338 26.1058 22.2384 26.1058C22.243 26.1058 22.2477 26.1058 22.2523 26.1058C22.2569 26.1058 22.2615 26.1058 22.2661 26.1058C22.2707 26.1058 22.2753 26.1058 22.2798 26.1058C22.2844 26.1058 22.2889 26.1058 22.2935 26.1058C22.298 26.1058 22.3026 26.1058 22.3071 26.1058C22.3116 26.1058 22.3161 26.1058 22.3206 26.1058C22.3251 26.1058 22.3296 26.1058 22.3341 26.1058C22.3385 26.1058 22.343 26.1058 22.3474 26.1058C22.3519 26.1058 22.3563 26.1058 22.3607 26.1058C22.3651 26.1058 22.3696 26.1058 22.374 26.1058C22.3783 26.1058 22.3827 26.1058 22.3871 26.1058C22.3915 26.1058 22.3958 26.1058 22.4002 26.1058C22.4045 26.1058 22.4089 26.1058 22.4132 26.1058C22.4175 26.1058 22.4218 26.1058 22.4261 26.1058C22.4304 26.1058 22.4347 26.1058 22.4389 26.1058C22.4432 26.1058 22.4475 26.1058 22.4517 26.1058C22.4559 26.1058 22.4602 26.1058 22.4644 26.1058C22.4686 26.1058 22.4728 26.1058 22.477 26.1058C22.4812 26.1058 22.4854 26.1058 22.4895 26.1058C22.4937 26.1058 22.4978 26.1058 22.502 26.1058C22.5061 26.1058 22.5102 26.1058 22.5143 26.1058C22.5184 26.1058 22.5225 26.1058 22.5266 26.1058C22.5307 26.1058 22.5348 26.1058 22.5388 26.1058C22.5429 26.1058 22.5469 26.1058 22.5509 26.1058C22.555 26.1058 22.559 26.1058 22.563 26.1058C22.567 26.1058 22.571 26.1058 22.5749 26.1058C22.5789 26.1058 22.5829 26.1058 22.5868 26.1058C22.5908 26.1058 22.5947 26.1058 22.5986 26.1058C22.6025 26.1058 22.6064 26.1058 22.6103 26.1058C22.6142 26.1058 22.618 26.1058 22.6219 26.1058C22.6258 26.1058 22.6296 26.1058 22.6334 26.1058C22.6373 26.1058 22.6411 26.1058 22.6449 26.1058C22.6487 26.1058 22.6525 26.1058 22.6562 26.1058C22.66 26.1058 22.6638 26.1058 22.6675 26.1058C22.6712 26.1058 22.675 26.1058 22.6787 26.1058C22.6824 26.1058 22.6861 26.1058 22.6898 26.1058C22.6934 26.1058 22.6971 26.1058 22.7008 26.1058C22.7044 26.1058 22.708 26.1058 22.7117 26.1058C22.7153 26.1058 22.7189 26.1058 22.7225 26.1058C22.7261 26.1058 22.7296 26.1058 22.7332 26.1058C22.7368 26.1058 22.7403 26.1058 22.7438 26.1058C22.7474 26.1058 22.7509 26.1058 22.7544 26.1058C22.7579 26.1058 22.7614 26.1058 22.7648 26.1058C22.7683 26.1058 22.7717 26.1058 22.7752 26.1058C22.7786 26.1058 22.782 26.1058 22.7854 26.1058C22.7888 26.1058 22.7922 26.1058 22.7956 26.1058C22.799 26.1058 22.8023 26.1058 22.8057 26.1058C22.809 26.1058 22.8123 26.1058 22.8156 26.1058C22.8189 26.1058 22.8222 26.1058 22.8255 26.1058C22.8288 26.1058 22.8321 26.1058 22.8353 26.1058C22.8385 26.1058 22.8418 26.1058 22.845 26.1058C22.8482 26.1058 22.8514 26.1058 22.8546 26.1058C22.8577 26.1058 22.8609 26.1058 22.864 26.1058C22.8672 26.1058 22.8703 26.1058 22.8734 26.1058C22.8765 26.1058 22.8796 26.1058 22.8827 26.1058C22.8858 26.1058 22.8889 26.1058 22.8919 26.1058C22.895 26.1058 22.898 26.1058 22.901 26.1058C22.904 26.1058 22.907 26.1058 22.91 26.1058C22.913 26.1058 22.9159 26.1058 22.9189 26.1058C22.9218 26.1058 22.9247 26.1058 22.9276 26.1058C22.9305 26.1058 22.9334 26.1058 22.9363 26.1058C22.9392 26.1058 22.942 26.1058 22.9449 26.1058C22.9477 26.1058 22.9505 26.1058 22.9534 26.1058C22.9562 26.1058 22.9589 26.1058 22.9617 26.1058C22.9645 26.1058 22.9672 26.1058 22.97 26.1058C22.9727 26.1058 22.9754 26.1058 22.9781 26.1058C22.9808 26.1058 22.9835 26.1058 22.9862 26.1058C22.9888 26.1058 22.9915 26.1058 22.9941 26.1058C22.9967 26.1058 22.9993 26.1058 23.0019 26.1058C23.0045 26.1058 23.0071 26.1058 23.0097 26.1058C23.0122 26.1058 23.0148 26.1058 23.0173 26.1058C23.0198 26.1058 23.0223 26.1058 23.0248 26.1058C23.0273 26.1058 23.0297 26.1058 23.0322 26.1058C23.0346 26.1058 23.0371 26.1058 23.0395 26.1058C23.0419 26.1058 23.0443 26.1058 23.0466 26.1058C23.049 26.1058 23.0514 26.1058 23.0537 26.1058C23.056 26.1058 23.0583 26.1058 23.0606 26.1058C23.0629 26.1058 23.0652 26.1058 23.0675 26.1058C23.0697 26.1058 23.072 26.1058 23.0742 26.1058C23.0764 26.1058 23.0786 26.1058 23.0808 26.1058C23.083 26.1058 23.0852 26.1058 23.0873 26.1058C23.0895 26.1058 23.0916 26.1058 23.0937 26.1058C23.0958 26.1058 23.0979 26.1058 23.1 26.1058C23.102 26.1058 23.1041 26.1058 23.1061 26.1058C23.1081 26.1058 23.1102 26.1058 23.1121 26.1058C23.1141 26.1058 23.1161 26.1058 23.1181 26.1058C23.12 26.1058 23.1219 26.1058 23.1239 26.1058C23.1258 26.1058 23.1277 26.1058 23.1295 26.1058C23.1314 26.1058 23.1333 26.1058 23.1351 26.1058C23.1369 26.1058 23.1388 26.1058 23.1405 26.1058C23.1423 26.1058 23.1441 26.1058 23.1459 26.1058C23.1476 26.1058 23.1494 26.1058 23.1511 26.1058C23.1528 26.1058 23.1545 26.1058 23.1561 26.1058C23.1578 26.1058 23.1595 26.1058 23.1611 26.1058C23.1627 26.1058 23.1644 26.1058 23.1659 26.1058C23.1675 26.1058 23.1691 26.1058 23.1707 26.1058C23.1722 26.1058 23.1737 26.1058 23.1753 26.1058C23.1768 26.1058 23.1783 26.1058 23.1797 26.1058C23.1812 26.1058 23.1826 26.1058 23.1841 26.1058C23.1855 26.1058 23.1869 26.1058 23.1883 26.1058C23.1897 26.1058 23.191 26.1058 23.1924 26.1058C23.1937 26.1058 23.195 26.1058 23.1963 26.1058C23.1976 26.1058 23.1989 26.1058 23.2002 26.1058C23.2014 26.1058 23.2027 26.1058 23.2039 26.1058C23.2051 26.1058 23.2063 26.1058 23.2075 26.1058C23.2087 26.1058 23.2098 26.1058 23.2109 26.1058C23.2121 26.1058 23.2132 26.1058 23.2143 26.1058C23.2154 26.1058 23.2164 26.1058 23.2175 26.1058C23.2185 26.1058 23.2195 26.1058 23.2205 26.1058C23.2215 26.1058 23.2225 26.1058 23.2235 26.1058C23.2244 26.1058 23.2254 26.1058 23.2263 26.1058C23.2272 26.1058 23.2281 26.1058 23.229 26.1058C23.2298 26.1058 23.2307 26.1058 23.2315 26.1058C23.2323 26.1058 23.2331 26.1058 23.2339 26.1058C23.2347 26.1058 23.2355 26.1058 23.2362 26.1058C23.2369 26.1058 23.2377 26.1058 23.2383 26.1058C23.239 26.1058 23.2397 26.1058 23.2404 26.1058C23.241 26.1058 23.2416 26.1058 23.2422 26.1058C23.2428 26.1058 23.2434 26.1058 23.244 26.1058C23.2445 26.1058 23.2451 26.1058 23.2456 26.1058C23.2461 26.1058 23.2466 26.1058 23.247 26.1058C23.2475 26.1058 23.248 26.1058 23.2484 26.1058C23.2488 26.1058 23.2492 26.1058 23.2496 26.1058C23.2499 26.1058 23.2503 26.1058 23.2506 26.1058C23.251 26.1058 23.2513 26.1058 23.2515 26.1058C23.2518 26.1058 23.2521 26.1058 23.2523 26.1058C23.2526 26.1058 23.2528 26.1058 23.253 26.1058C23.2531 26.1058 23.2533 26.1058 23.2535 26.1058C23.2536 26.1058 23.2537 26.1058 23.2538 26.1058C23.2539 26.1058 23.254 26.1058 23.254 26.1058C23.2541 26.1058 23.2541 26.1058 23.2541 25.9558C23.2541 25.8058 23.2541 25.8058 23.254 25.8058C23.254 25.8058 23.2539 25.8058 23.2538 25.8058C23.2537 25.8058 23.2536 25.8058 23.2535 25.8058C23.2533 25.8058 23.2531 25.8058 23.253 25.8058C23.2528 25.8058 23.2526 25.8058 23.2523 25.8058C23.2521 25.8058 23.2518 25.8058 23.2515 25.8058C23.2513 25.8058 23.251 25.8058 23.2506 25.8058C23.2503 25.8058 23.2499 25.8058 23.2496 25.8058C23.2492 25.8058 23.2488 25.8058 23.2484 25.8058C23.248 25.8058 23.2475 25.8058 23.247 25.8058C23.2466 25.8058 23.2461 25.8058 23.2456 25.8058C23.2451 25.8058 23.2445 25.8058 23.244 25.8058C23.2434 25.8058 23.2428 25.8058 23.2422 25.8058C23.2416 25.8058 23.241 25.8058 23.2404 25.8058C23.2397 25.8058 23.239 25.8058 23.2383 25.8058C23.2377 25.8058 23.2369 25.8058 23.2362 25.8058C23.2355 25.8058 23.2347 25.8058 23.2339 25.8058C23.2331 25.8058 23.2323 25.8058 23.2315 25.8058C23.2307 25.8058 23.2298 25.8058 23.229 25.8058C23.2281 25.8058 23.2272 25.8058 23.2263 25.8058C23.2254 25.8058 23.2244 25.8058 23.2235 25.8058C23.2225 25.8058 23.2215 25.8058 23.2205 25.8058C23.2195 25.8058 23.2185 25.8058 23.2175 25.8058C23.2164 25.8058 23.2154 25.8058 23.2143 25.8058C23.2132 25.8058 23.2121 25.8058 23.2109 25.8058C23.2098 25.8058 23.2087 25.8058 23.2075 25.8058C23.2063 25.8058 23.2051 25.8058 23.2039 25.8058C23.2027 25.8058 23.2014 25.8058 23.2002 25.8058C23.1989 25.8058 23.1976 25.8058 23.1963 25.8058C23.195 25.8058 23.1937 25.8058 23.1924 25.8058C23.191 25.8058 23.1897 25.8058 23.1883 25.8058C23.1869 25.8058 23.1855 25.8058 23.1841 25.8058C23.1826 25.8058 23.1812 25.8058 23.1797 25.8058C23.1783 25.8058 23.1768 25.8058 23.1753 25.8058C23.1737 25.8058 23.1722 25.8058 23.1707 25.8058C23.1691 25.8058 23.1675 25.8058 23.1659 25.8058C23.1644 25.8058 23.1627 25.8058 23.1611 25.8058C23.1595 25.8058 23.1578 25.8058 23.1561 25.8058C23.1545 25.8058 23.1528 25.8058 23.1511 25.8058C23.1494 25.8058 23.1476 25.8058 23.1459 25.8058C23.1441 25.8058 23.1423 25.8058 23.1405 25.8058C23.1388 25.8058 23.1369 25.8058 23.1351 25.8058C23.1333 25.8058 23.1314 25.8058 23.1295 25.8058C23.1277 25.8058 23.1258 25.8058 23.1239 25.8058C23.1219 25.8058 23.12 25.8058 23.1181 25.8058C23.1161 25.8058 23.1141 25.8058 23.1121 25.8058C23.1102 25.8058 23.1081 25.8058 23.1061 25.8058C23.1041 25.8058 23.102 25.8058 23.1 25.8058C23.0979 25.8058 23.0958 25.8058 23.0937 25.8058C23.0916 25.8058 23.0895 25.8058 23.0873 25.8058C23.0852 25.8058 23.083 25.8058 23.0808 25.8058C23.0786 25.8058 23.0764 25.8058 23.0742 25.8058C23.072 25.8058 23.0697 25.8058 23.0675 25.8058C23.0652 25.8058 23.0629 25.8058 23.0606 25.8058C23.0583 25.8058 23.056 25.8058 23.0537 25.8058C23.0514 25.8058 23.049 25.8058 23.0466 25.8058C23.0443 25.8058 23.0419 25.8058 23.0395 25.8058C23.0371 25.8058 23.0346 25.8058 23.0322 25.8058C23.0297 25.8058 23.0273 25.8058 23.0248 25.8058C23.0223 25.8058 23.0198 25.8058 23.0173 25.8058C23.0148 25.8058 23.0122 25.8058 23.0097 25.8058C23.0071 25.8058 23.0045 25.8058 23.0019 25.8058C22.9993 25.8058 22.9967 25.8058 22.9941 25.8058C22.9915 25.8058 22.9888 25.8058 22.9862 25.8058C22.9835 25.8058 22.9808 25.8058 22.9781 25.8058C22.9754 25.8058 22.9727 25.8058 22.97 25.8058C22.9672 25.8058 22.9645 25.8058 22.9617 25.8058C22.9589 25.8058 22.9562 25.8058 22.9534 25.8058C22.9505 25.8058 22.9477 25.8058 22.9449 25.8058C22.942 25.8058 22.9392 25.8058 22.9363 25.8058C22.9334 25.8058 22.9305 25.8058 22.9276 25.8058C22.9247 25.8058 22.9218 25.8058 22.9189 25.8058C22.9159 25.8058 22.913 25.8058 22.91 25.8058C22.907 25.8058 22.904 25.8058 22.901 25.8058C22.898 25.8058 22.895 25.8058 22.8919 25.8058C22.8889 25.8058 22.8858 25.8058 22.8827 25.8058C22.8796 25.8058 22.8765 25.8058 22.8734 25.8058C22.8703 25.8058 22.8672 25.8058 22.864 25.8058C22.8609 25.8058 22.8577 25.8058 22.8546 25.8058C22.8514 25.8058 22.8482 25.8058 22.845 25.8058C22.8418 25.8058 22.8385 25.8058 22.8353 25.8058C22.8321 25.8058 22.8288 25.8058 22.8255 25.8058C22.8222 25.8058 22.8189 25.8058 22.8156 25.8058C22.8123 25.8058 22.809 25.8058 22.8057 25.8058C22.8023 25.8058 22.799 25.8058 22.7956 25.8058C22.7922 25.8058 22.7888 25.8058 22.7854 25.8058C22.782 25.8058 22.7786 25.8058 22.7752 25.8058C22.7717 25.8058 22.7683 25.8058 22.7648 25.8058C22.7614 25.8058 22.7579 25.8058 22.7544 25.8058C22.7509 25.8058 22.7474 25.8058 22.7438 25.8058C22.7403 25.8058 22.7368 25.8058 22.7332 25.8058C22.7296 25.8058 22.7261 25.8058 22.7225 25.8058C22.7189 25.8058 22.7153 25.8058 22.7117 25.8058C22.708 25.8058 22.7044 25.8058 22.7008 25.8058C22.6971 25.8058 22.6934 25.8058 22.6898 25.8058C22.6861 25.8058 22.6824 25.8058 22.6787 25.8058C22.675 25.8058 22.6712 25.8058 22.6675 25.8058C22.6638 25.8058 22.66 25.8058 22.6562 25.8058C22.6525 25.8058 22.6487 25.8058 22.6449 25.8058C22.6411 25.8058 22.6373 25.8058 22.6334 25.8058C22.6296 25.8058 22.6258 25.8058 22.6219 25.8058C22.618 25.8058 22.6142 25.8058 22.6103 25.8058C22.6064 25.8058 22.6025 25.8058 22.5986 25.8058C22.5947 25.8058 22.5908 25.8058 22.5868 25.8058C22.5829 25.8058 22.5789 25.8058 22.5749 25.8058C22.571 25.8058 22.567 25.8058 22.563 25.8058C22.559 25.8058 22.555 25.8058 22.5509 25.8058C22.5469 25.8058 22.5429 25.8058 22.5388 25.8058C22.5348 25.8058 22.5307 25.8058 22.5266 25.8058C22.5225 25.8058 22.5184 25.8058 22.5143 25.8058C22.5102 25.8058 22.5061 25.8058 22.502 25.8058C22.4978 25.8058 22.4937 25.8058 22.4895 25.8058C22.4854 25.8058 22.4812 25.8058 22.477 25.8058C22.4728 25.8058 22.4686 25.8058 22.4644 25.8058C22.4602 25.8058 22.4559 25.8058 22.4517 25.8058C22.4475 25.8058 22.4432 25.8058 22.4389 25.8058C22.4347 25.8058 22.4304 25.8058 22.4261 25.8058C22.4218 25.8058 22.4175 25.8058 22.4132 25.8058C22.4089 25.8058 22.4045 25.8058 22.4002 25.8058C22.3958 25.8058 22.3915 25.8058 22.3871 25.8058C22.3827 25.8058 22.3783 25.8058 22.374 25.8058C22.3696 25.8058 22.3651 25.8058 22.3607 25.8058C22.3563 25.8058 22.3519 25.8058 22.3474 25.8058C22.343 25.8058 22.3385 25.8058 22.3341 25.8058C22.3296 25.8058 22.3251 25.8058 22.3206 25.8058C22.3161 25.8058 22.3116 25.8058 22.3071 25.8058C22.3026 25.8058 22.298 25.8058 22.2935 25.8058C22.2889 25.8058 22.2844 25.8058 22.2798 25.8058C22.2753 25.8058 22.2707 25.8058 22.2661 25.8058C22.2615 25.8058 22.2569 25.8058 22.2523 25.8058C22.2477 25.8058 22.243 25.8058 22.2384 25.8058C22.2338 25.8058 22.2291 25.8058 22.2245 25.8058C22.2198 25.8058 22.2151 25.8058 22.2104 25.8058C22.2058 25.8058 22.2011 25.8058 22.1964 25.8058C22.1917 25.8058 22.1869 25.8058 22.1822 25.8058C22.1775 25.8058 22.1727 25.8058 22.168 25.8058C22.1632 25.8058 22.1585 25.8058 22.1537 25.8058C22.1489 25.8058 22.1441 25.8058 22.1393 25.8058C22.1345 25.8058 22.1297 25.8058 22.1249 25.8058C22.1201 25.8058 22.1153 25.8058 22.1104 25.8058C22.1056 25.8058 22.1008 25.8058 22.0959 25.8058C22.091 25.8058 22.0862 25.8058 22.0813 25.8058C22.0764 25.8058 22.0715 25.8058 22.0666 25.8058C22.0617 25.8058 22.0568 25.8058 22.0519 25.8058C22.0469 25.8058 22.042 25.8058 22.0371 25.8058C22.0321 25.8058 22.0272 25.8058 22.0222 25.8058C22.0172 25.8058 22.0123 25.8058 22.0073 25.8058C22.0023 25.8058 21.9973 25.8058 21.9923 25.8058C21.9873 25.8058 21.9823 25.8058 21.9772 25.8058C21.9722 25.8058 21.9672 25.8058 21.9621 25.8058C21.9571 25.8058 21.952 25.8058 21.947 25.8058C21.9419 25.8058 21.9368 25.8058 21.9317 25.8058C21.9267 25.8058 21.9216 25.8058 21.9165 25.8058C21.9114 25.8058 21.9062 25.8058 21.9011 25.8058C21.896 25.8058 21.8909 25.8058 21.8857 25.8058C21.8806 25.8058 21.8754 25.8058 21.8703 25.8058C21.8651 25.8058 21.8599 25.8058 21.8548 25.8058C21.8496 25.8058 21.8444 25.8058 21.8392 25.8058C21.834 25.8058 21.8288 25.8058 21.8236 25.8058C21.8184 25.8058 21.8131 25.8058 21.8079 25.8058C21.8027 25.8058 21.7974 25.8058 21.7922 25.8058C21.7869 25.8058 21.7817 25.8058 21.7764 25.8058C21.7711 25.8058 21.7659 25.8058 21.7606 25.8058C21.7553 25.8058 21.75 25.8058 21.7447 25.8058C21.7394 25.8058 21.7341 25.8058 21.7288 25.8058C21.7234 25.8058 21.7181 25.8058 21.7128 25.8058C21.7074 25.8058 21.7021 25.8058 21.6967 25.8058C21.6914 25.8058 21.686 25.8058 21.6807 25.8058C21.6753 25.8058 21.6699 25.8058 21.6645 25.8058C21.6591 25.8058 21.6537 25.8058 21.6483 25.8058C21.6429 25.8058 21.6375 25.8058 21.6321 25.8058C21.6267 25.8058 21.6213 25.8058 21.6158 25.8058C21.6104 25.8058 21.605 25.8058 21.5995 25.8058C21.5941 25.8058 21.5886 25.8058 21.5831 25.8058C21.5777 25.8058 21.5722 25.8058 21.5667 25.8058C21.5612 25.8058 21.5557 25.8058 21.5503 25.8058C21.5448 25.8058 21.5393 25.8058 21.5337 25.8058C21.5282 25.8058 21.5227 25.8058 21.5172 25.8058C21.5117 25.8058 21.5061 25.8058 21.5006 25.8058C21.4951 25.8058 21.4895 25.8058 21.484 25.8058C21.4784 25.8058 21.4729 25.8058 21.4673 25.8058C21.4617 25.8058 21.4561 25.8058 21.4506 25.8058C21.445 25.8058 21.4394 25.8058 21.4338 25.8058C21.4282 25.8058 21.4226 25.8058 21.417 25.8058C21.4114 25.8058 21.4058 25.8058 21.4002 25.8058C21.3945 25.8058 21.3889 25.8058 21.3833 25.8058C21.3776 25.8058 21.372 25.8058 21.3664 25.8058C21.3607 25.8058 21.3551 25.8058 21.3494 25.8058C21.3437 25.8058 21.3381 25.8058 21.3324 25.8058C21.3267 25.8058 21.321 25.8058 21.3154 25.8058C21.3097 25.8058 21.304 25.8058 21.2983 25.8058C21.2926 25.8058 21.2869 25.8058 21.2812 25.8058C21.2755 25.8058 21.2698 25.8058 21.264 25.8058C21.2583 25.8058 21.2526 25.8058 21.2469 25.8058C21.2411 25.8058 21.2354 25.8058 21.2296 25.8058C21.2239 25.8058 21.2181 25.8058 21.2124 25.8058C21.2066 25.8058 21.2009 25.8058 21.1951 25.8058C21.1893 25.8058 21.1836 25.8058 21.1778 25.8058C21.172 25.8058 21.1662 25.8058 21.1604 25.8058C21.1547 25.8058 21.1489 25.8058 21.1431 25.8058C21.1373 25.8058 21.1315 25.8058 21.1257 25.8058C21.1199 25.8058 21.114 25.8058 21.1082 25.8058C21.1024 25.8058 21.0966 25.8058 21.0908 25.8058C21.0849 25.8058 21.0791 25.8058 21.0733 25.8058C21.0674 25.8058 21.0616 25.8058 21.0557 25.8058C21.0499 25.8058 21.044 25.8058 21.0382 25.8058C21.0323 25.8058 21.0264 25.8058 21.0206 25.8058C21.0147 25.8058 21.0088 25.8058 21.003 25.8058C20.9971 25.8058 20.9912 25.8058 20.9853 25.8058C20.9794 25.8058 20.9736 25.8058 20.9677 25.8058C20.9618 25.8058 20.9559 25.8058 20.95 25.8058C20.9441 25.8058 20.9382 25.8058 20.9323 25.8058C20.9263 25.8058 20.9204 25.8058 20.9145 25.8058C20.9086 25.8058 20.9027 25.8058 20.8967 25.8058C20.8908 25.8058 20.8849 25.8058 20.879 25.8058C20.873 25.8058 20.8671 25.8058 20.8611 25.8058C20.8552 25.8058 20.8493 25.8058 20.8433 25.8058C20.8374 25.8058 20.8314 25.8058 20.8255 25.8058C20.8195 25.8058 20.8135 25.8058 20.8076 25.8058C20.8016 25.8058 20.7957 25.8058 20.7897 25.8058C20.7837 25.8058 20.7777 25.8058 20.7718 25.8058C20.7658 25.8058 20.7598 25.8058 20.7538 25.8058C20.7478 25.8058 20.7419 25.8058 20.7359 25.8058C20.7299 25.8058 20.7239 25.8058 20.7179 25.8058C20.7119 25.8058 20.7059 25.8058 20.6999 25.8058C20.6939 25.8058 20.6879 25.8058 20.6819 25.8058C20.6759 25.8058 20.6699 25.8058 20.6639 25.8058C20.6579 25.8058 20.6518 25.8058 20.6458 25.8058C20.6398 25.8058 20.6338 25.8058 20.6278 25.8058C20.6218 25.8058 20.6157 25.8058 20.6097 25.8058C20.6037 25.8058 20.5976 25.8058 20.5916 25.8058C20.5856 25.8058 20.5795 25.8058 20.5735 25.8058C20.5675 25.8058 20.5614 25.8058 20.5554 25.8058C20.5494 25.8058 20.5433 25.8058 20.5373 25.8058C20.5312 25.8058 20.5252 25.8058 20.5191 25.8058C20.5131 25.8058 20.507 25.8058 20.501 25.8058C20.4949 25.8058 20.4889 25.8058 20.4828 25.8058C20.4768 25.8058 20.4707 25.8058 20.4646 25.8058C20.4586 25.8058 20.4525 25.8058 20.4465 25.8058C20.4404 25.8058 20.4343 25.8058 20.4283 25.8058C20.4222 25.8058 20.4161 25.8058 20.4101 25.8058C20.404 25.8058 20.3979 25.8058 20.3919 25.8058C20.3858 25.8058 20.3797 25.8058 20.3736 25.8058C20.3676 25.8058 20.3615 25.8058 20.3554 25.8058C20.3493 25.8058 20.3433 25.8058 20.3372 25.8058C20.3311 25.8058 20.325 25.8058 20.3189 25.8058C20.3129 25.8058 20.3068 25.8058 20.3007 25.8058C20.2946 25.8058 20.2885 25.8058 20.2824 25.8058C20.2764 25.8058 20.2703 25.8058 20.2642 25.8058C20.2581 25.8058 20.252 25.8058 20.2459 25.8058C20.2399 25.8058 20.2338 25.8058 20.2277 25.8058C20.2216 25.8058 20.2155 25.8058 20.2094 25.8058C20.2033 25.8058 20.1972 25.8058 20.1911 25.8058C20.1851 25.8058 20.179 25.8058 20.1729 25.8058C20.1668 25.8058 20.1607 25.8058 20.1546 25.8058C20.1485 25.8058 20.1424 25.8058 20.1363 25.8058C20.1303 25.8058 20.1242 25.8058 20.1181 25.8058C20.112 25.8058 20.1059 25.8058 20.0998 25.8058C20.0937 25.8058 20.0876 25.8058 20.0815 25.8058C20.0754 25.8058 20.0694 25.8058 20.0633 25.8058C20.0572 25.8058 20.0511 25.8058 20.045 25.8058C20.0389 25.8058 20.0328 25.8058 20.0267 25.8058C20.0207 25.8058 20.0146 25.8058 20.0085 25.8058C20.0024 25.8058 19.9963 25.8058 19.9902 25.8058C19.9842 25.8058 19.9781 25.8058 19.972 25.8058C19.9659 25.8058 19.9598 25.8058 19.9537 25.8058C19.9477 25.8058 19.9416 25.8058 19.9355 25.8058C19.9294 25.8058 19.9233 25.8058 19.9173 25.8058C19.9112 25.8058 19.9051 25.8058 19.899 25.8058C19.893 25.8058 19.8869 25.8058 19.8808 25.8058C19.8748 25.8058 19.8687 25.8058 19.8626 25.8058C19.8566 25.8058 19.8505 25.8058 19.8444 25.8058C19.8384 25.8058 19.8323 25.8058 19.8262 25.8058C19.8202 25.8058 19.8141 25.8058 19.808 25.8058C19.802 25.8058 19.7959 25.8058 19.7899 25.8058C19.7838 25.8058 19.7778 25.8058 19.7717 25.8058C19.7656 25.8058 19.7596 25.8058 19.7535 25.8058C19.7475 25.8058 19.7415 25.8058 19.7354 25.8058C19.7294 25.8058 19.7233 25.8058 19.7173 25.8058C19.7112 25.8058 19.7052 25.8058 19.6992 25.8058C19.6931 25.8058 19.6871 25.8058 19.6811 25.8058C19.675 25.8058 19.669 25.8058 19.663 25.8058C19.6569 25.8058 19.6509 25.8058 19.6449 25.8058C19.6389 25.8058 19.6329 25.8058 19.6268 25.8058C19.6208 25.8058 19.6148 25.8058 19.6088 25.8058C19.6028 25.8058 19.5968 25.8058 19.5908 25.8058C19.5848 25.8058 19.5788 25.8058 19.5728 25.8058C19.5668 25.8058 19.5608 25.8058 19.5548 25.8058C19.5488 25.8058 19.5428 25.8058 19.5368 25.8058C19.5308 25.8058 19.5248 25.8058 19.5188 25.8058C19.5129 25.8058 19.5069 25.8058 19.5009 25.8058C19.4949 25.8058 19.489 25.8058 19.483 25.8058C19.477 25.8058 19.471 25.8058 19.4651 25.8058C19.4591 25.8058 19.4532 25.8058 19.4472 25.8058C19.4412 25.8058 19.4353 25.8058 19.4293 25.8058C19.4234 25.8058 19.4175 25.8058 19.4115 25.8058C19.4056 25.8058 19.3996 25.8058 19.3937 25.8058C19.3878 25.8058 19.3818 25.8058 19.3759 25.8058C19.37 25.8058 19.3641 25.8058 19.3581 25.8058C19.3522 25.8058 19.3463 25.8058 19.3404 25.8058C19.3345 25.8058 19.3286 25.8058 19.3227 25.8058C19.3168 25.8058 19.3109 25.8058 19.305 25.8058C19.2991 25.8058 19.2932 25.8058 19.2873 25.8058C19.2814 25.8058 19.2756 25.8058 19.2697 25.8058C19.2638 25.8058 19.2579 25.8058 19.2521 25.8058C19.2462 25.8058 19.2403 25.8058 19.2345 25.8058C19.2286 25.8058 19.2228 25.8058 19.2169 25.8058C19.2111 25.8058 19.2052 25.8058 19.1994 25.8058C19.1936 25.8058 19.1877 25.8058 19.1819 25.8058C19.1761 25.8058 19.1702 25.8058 19.1644 25.8058C19.1586 25.8058 19.1528 25.8058 19.147 25.8058C19.1412 25.8058 19.1354 25.8058 19.1296 25.8058C19.1238 25.8058 19.118 25.8058 19.1122 25.8058C19.1064 25.8058 19.1006 25.8058 19.0948 25.8058C19.0891 25.8058 19.0833 25.8058 19.0775 25.8058C19.0718 25.8058 19.066 25.8058 19.0602 25.8058C19.0545 25.8058 19.0487 25.8058 19.043 25.8058C19.0372 25.8058 19.0315 25.8058 19.0258 25.8058C19.02 25.8058 19.0143 25.8058 19.0086 25.8058C19.0029 25.8058 18.9972 25.8058 18.9914 25.8058C18.9857 25.8058 18.98 25.8058 18.9743 25.8058C18.9686 25.8058 18.9629 25.8058 18.9573 25.8058C18.9516 25.8058 18.9459 25.8058 18.9402 25.8058C18.9345 25.8058 18.9289 25.8058 18.9232 25.8058C18.9176 25.8058 18.9119 25.8058 18.9063 25.8058C18.9006 25.8058 18.895 25.8058 18.8893 25.8058C18.8837 25.8058 18.8781 25.8058 18.8724 25.8058C18.8668 25.8058 18.8612 25.8058 18.8556 25.8058C18.85 25.8058 18.8444 25.8058 18.8388 25.8058C18.8332 25.8058 18.8276 25.8058 18.822 25.8058C18.8165 25.8058 18.8109 25.8058 18.8053 25.8058C18.7997 25.8058 18.7942 25.8058 18.7886 25.8058C18.7831 25.8058 18.7775 25.8058 18.772 25.8058C18.7664 25.8058 18.7609 25.8058 18.7554 25.8058C18.7499 25.8058 18.7444 25.8058 18.7388 25.8058C18.7333 25.8058 18.7278 25.8058 18.7223 25.8058C18.7168 25.8058 18.7113 25.8058 18.7059 25.8058C18.7004 25.8058 18.6949 25.8058 18.6894 25.8058C18.684 25.8058 18.6785 25.8058 18.6731 25.8058C18.6676 25.8058 18.6622 25.8058 18.6567 25.8058C18.6513 25.8058 18.6459 25.8058 18.6405 25.8058C18.635 25.8058 18.6296 25.8058 18.6242 25.8058C18.6188 25.8058 18.6134 25.8058 18.608 25.8058C18.6027 25.8058 18.5973 25.8058 18.5919 25.8058C18.5865 25.8058 18.5812 25.8058 18.5758 25.8058C18.5705 25.8058 18.5651 25.8058 18.5598 25.8058C18.5544 25.8058 18.5491 25.8058 18.5438 25.8058C18.5385 25.8058 18.5332 25.8058 18.5279 25.8058C18.5226 25.8058 18.5173 25.8058 18.512 25.8058C18.5067 25.8058 18.5014 25.8058 18.4961 25.8058C18.4909 25.8058 18.4856 25.8058 18.4804 25.8058C18.4751 25.8058 18.4699 25.8058 18.4646 25.8058C18.4594 25.8058 18.4542 25.8058 18.449 25.8058C18.4437 25.8058 18.4385 25.8058 18.4333 25.8058C18.4281 25.8058 18.4229 25.8058 18.4178 25.8058C18.4126 25.8058 18.4074 25.8058 18.4023 25.8058C18.3971 25.8058 18.3919 25.8058 18.3868 25.8058C18.3817 25.8058 18.3765 25.8058 18.3714 25.8058C18.3663 25.8058 18.3612 25.8058 18.3561 25.8058C18.351 25.8058 18.3459 25.8058 18.3408 25.8058C18.3357 25.8058 18.3306 25.8058 18.3255 25.8058C18.3205 25.8058 18.3154 25.8058 18.3104 25.8058C18.3053 25.8058 18.3003 25.8058 18.2953 25.8058C18.2902 25.8058 18.2852 25.8058 18.2802 25.8058C18.2752 25.8058 18.2702 25.8058 18.2652 25.8058C18.2602 25.8058 18.2553 25.8058 18.2503 25.8058C18.2453 25.8058 18.2404 25.8058 18.2354 25.8058C18.2305 25.8058 18.2255 25.8058 18.2206 25.8058C18.2157 25.8058 18.2108 25.8058 18.2059 25.8058C18.201 25.8058 18.1961 25.8058 18.1912 25.8058C18.1863 25.8058 18.1814 25.8058 18.1766 25.8058C18.1717 25.8058 18.1669 25.8058 18.162 25.8058C18.1572 25.8058 18.1524 25.8058 18.1475 25.8058C18.1427 25.8058 18.1379 25.8058 18.1331 25.8058C18.1283 25.8058 18.1235 25.8058 18.1188 25.8058C18.114 25.8058 18.1092 25.8058 18.1045 25.8058C18.0997 25.8058 18.095 25.8058 18.0902 25.8058C18.0855 25.8058 18.0808 25.8058 18.0761 25.8058C18.0714 25.8058 18.0667 25.8058 18.062 25.8058C18.0573 25.8058 18.0526 25.8058 18.048 25.8058C18.0433 25.8058 18.0387 25.8058 18.034 25.8058C18.0294 25.8058 18.0248 25.8058 18.0201 25.8058C18.0155 25.8058 18.0109 25.8058 18.0063 25.8058C18.0017 25.8058 17.9972 25.8058 17.9926 25.8058C17.988 25.8058 17.9835 25.8058 17.9789 25.8058C17.9744 25.8058 17.9699 25.8058 17.9653 25.8058C17.9608 25.8058 17.9563 25.8058 17.9518 25.8058C17.9473 25.8058 17.9428 25.8058 17.9384 25.8058C17.9339 25.8058 17.9294 25.8058 17.925 25.8058C17.9205 25.8058 17.9161 25.8058 17.9117 25.8058C17.9072 25.8058 17.9028 25.8058 17.8984 25.8058C17.894 25.8058 17.8897 25.8058 17.8853 25.8058C17.8809 25.8058 17.8766 25.8058 17.8722 25.8058C17.8679 25.8058 17.8635 25.8058 17.8592 25.8058C17.8549 25.8058 17.8506 25.8058 17.8463 25.8058C17.842 25.8058 17.8377 25.8058 17.8334 25.8058C17.8292 25.8058 17.8249 25.8058 17.8207 25.8058C17.8164 25.8058 17.8122 25.8058 17.808 25.8058C17.8038 25.8058 17.7996 25.8058 17.7954 25.8058C17.7912 25.8058 17.787 25.8058 17.7828 25.8058C17.7787 25.8058 17.7745 25.8058 17.7704 25.8058C17.7662 25.8058 17.7621 25.8058 17.758 25.8058C17.7539 25.8058 17.7498 25.8058 17.7457 25.8058C17.7416 25.8058 17.7376 25.8058 17.7335 25.8058C17.7295 25.8058 17.7254 25.8058 17.7214 25.8058C17.7174 25.8058 17.7133 25.8058 17.7093 25.8058C17.7053 25.8058 17.7014 25.8058 17.6974 25.8058C17.6934 25.8058 17.6894 25.8058 17.6855 25.8058C17.6816 25.8058 17.6776 25.8058 17.6737 25.8058C17.6698 25.8058 17.6659 25.8058 17.662 25.8058C17.6581 25.8058 17.6543 25.8058 17.6504 25.8058C17.6465 25.8058 17.6427 25.8058 17.6389 25.8058C17.635 25.8058 17.6312 25.8058 17.6274 25.8058C17.6236 25.8058 17.6198 25.8058 17.6161 25.8058C17.6123 25.8058 17.6085 25.8058 17.6048 25.8058C17.601 25.8058 17.5973 25.8058 17.5936 25.8058C17.5899 25.8058 17.5862 25.8058 17.5825 25.8058C17.5788 25.8058 17.5752 25.8058 17.5715 25.8058C17.5679 25.8058 17.5642 25.8058 17.5606 25.8058C17.557 25.8058 17.5534 25.8058 17.5498 25.8058C17.5462 25.8058 17.5426 25.8058 17.539 25.8058C17.5355 25.8058 17.5319 25.8058 17.5284 25.8058C17.5249 25.8058 17.5214 25.8058 17.5179 25.8058C17.5144 25.8058 17.5109 25.8058 17.5074 25.8058C17.5039 25.8058 17.5005 25.8058 17.4971 25.8058C17.4936 25.8058 17.4902 25.8058 17.4868 25.8058C17.4834 25.8058 17.48 25.8058 17.4766 25.8058C17.4732 25.8058 17.4699 25.8058 17.4665 25.8058C17.4632 25.8058 17.4599 25.8058 17.4566 25.8058C17.4533 25.8058 17.45 25.8058 17.4467 25.8058C17.4434 25.8058 17.4401 25.8058 17.4369 25.8058C17.4337 25.8058 17.4304 25.8058 17.4272 25.8058C17.424 25.8058 17.4208 25.8058 17.4176 25.8058C17.4144 25.8058 17.4113 25.8058 17.4081 25.8058C17.405 25.8058 17.4018 25.8058 17.3987 25.8058C17.3956 25.8058 17.3925 25.8058 17.3894 25.8058C17.3864 25.8058 17.3833 25.8058 17.3803 25.8058C17.3772 25.8058 17.3742 25.8058 17.3712 25.8058C17.3681 25.8058 17.3652 25.8058 17.3622 25.8058C17.3592 25.8058 17.3562 25.8058 17.3533 25.8058C17.3503 25.8058 17.3474 25.8058 17.3445 25.8058C17.3416 25.8058 17.3387 25.8058 17.3358 25.8058C17.3329 25.8058 17.3301 25.8058 17.3272 25.8058C17.3244 25.8058 17.3216 25.8058 17.3188 25.8058C17.316 25.8058 17.3132 25.8058 17.3104 25.8058C17.3076 25.8058 17.3049 25.8058 17.3021 25.8058C17.2994 25.8058 17.2967 25.8058 17.294 25.8058C17.2913 25.8058 17.2886 25.8058 17.2859 25.8058C17.2833 25.8058 17.2806 25.8058 17.278 25.8058C17.2753 25.8058 17.2727 25.8058 17.2701 25.8058C17.2675 25.8058 17.265 25.8058 17.2624 25.8058C17.2599 25.8058 17.2573 25.8058 17.2548 25.8058C17.2523 25.8058 17.2498 25.8058 17.2473 25.8058C17.2448 25.8058 17.2423 25.8058 17.2399 25.8058C17.2374 25.8058 17.235 25.8058 17.2326 25.8058C17.2302 25.8058 17.2278 25.8058 17.2254 25.8058C17.223 25.8058 17.2207 25.8058 17.2183 25.8058C17.216 25.8058 17.2137 25.8058 17.2114 25.8058C17.2091 25.8058 17.2068 25.8058 17.2045 25.8058C17.2023 25.8058 17.2 25.8058 17.1978 25.8058C17.1956 25.8058 17.1934 25.8058 17.1912 25.8058C17.189 25.8058 17.1868 25.8058 17.1847 25.8058C17.1825 25.8058 17.1804 25.8058 17.1783 25.8058C17.1762 25.8058 17.1741 25.8058 17.172 25.8058C17.17 25.8058 17.1679 25.8058 17.1659 25.8058C17.1638 25.8058 17.1618 25.8058 17.1598 25.8058C17.1578 25.8058 17.1559 25.8058 17.1539 25.8058C17.152 25.8058 17.15 25.8058 17.1481 25.8058C17.1462 25.8058 17.1443 25.8058 17.1424 25.8058C17.1405 25.8058 17.1387 25.8058 17.1368 25.8058C17.135 25.8058 17.1332 25.8058 17.1314 25.8058C17.1296 25.8058 17.1278 25.8058 17.1261 25.8058C17.1243 25.8058 17.1226 25.8058 17.1209 25.8058C17.1191 25.8058 17.1174 25.8058 17.1158 25.8058C17.1141 25.8058 17.1124 25.8058 17.1108 25.8058C17.1092 25.8058 17.1076 25.8058 17.106 25.8058C17.1044 25.8058 17.1028 25.8058 17.1012 25.8058C17.0997 25.8058 17.0982 25.8058 17.0966 25.8058C17.0951 25.8058 17.0936 25.8058 17.0922 25.8058C17.0907 25.8058 17.0892 25.8058 17.0878 25.8058C17.0864 25.8058 17.085 25.8058 17.0836 25.8058C17.0822 25.8058 17.0808 25.8058 17.0795 25.8058C17.0781 25.8058 17.0768 25.8058 17.0755 25.8058C17.0742 25.8058 17.0729 25.8058 17.0717 25.8058C17.0704 25.8058 17.0692 25.8058 17.0679 25.8058C17.0667 25.8058 17.0655 25.8058 17.0643 25.8058C17.0632 25.8058 17.062 25.8058 17.0609 25.8058C17.0597 25.8058 17.0586 25.8058 17.0575 25.8058C17.0565 25.8058 17.0554 25.8058 17.0543 25.8058C17.0533 25.8058 17.0523 25.8058 17.0513 25.8058C17.0503 25.8058 17.0493 25.8058 17.0483 25.8058C17.0474 25.8058 17.0464 25.8058 17.0455 25.8058C17.0446 25.8058 17.0437 25.8058 17.0428 25.8058C17.0419 25.8058 17.0411 25.8058 17.0403 25.8058C17.0394 25.8058 17.0386 25.8058 17.0378 25.8058C17.0371 25.8058 17.0363 25.8058 17.0356 25.8058C17.0348 25.8058 17.0341 25.8058 17.0334 25.8058C17.0327 25.8058 17.032 25.8058 17.0314 25.8058C17.0307 25.8058 17.0301 25.8058 17.0295 25.8058C17.0289 25.8058 17.0283 25.8058 17.0278 25.8058C17.0272 25.8058 17.0267 25.8058 17.0261 25.8058C17.0256 25.8058 17.0251 25.8058 17.0247 25.8058C17.0242 25.8058 17.0237 25.8058 17.0233 25.8058C17.0229 25.8058 17.0225 25.8058 17.0221 25.8058C17.0217 25.8058 17.0214 25.8058 17.0211 25.8058C17.0207 25.8058 17.0204 25.8058 17.0201 25.8058C17.0199 25.8058 17.0196 25.8058 17.0194 25.8058C17.0191 25.8058 17.0189 25.8058 17.0187 25.8058C17.0185 25.8058 17.0183 25.8058 17.0182 25.8058C17.0181 25.8058 17.0179 25.8058 17.0178 25.8058C17.0177 25.8058 17.0177 25.8058 17.0176 25.8058C17.0176 25.8058 17.0175 25.8058 17.0175 25.8058V26.1058ZM23.2541 26.1058C23.5678 26.1058 23.8583 25.9406 24.0187 25.6711L23.7609 25.5176C23.6546 25.6963 23.462 25.8058 23.2541 25.8058V26.1058ZM24.0188 25.671C24.179 25.4015 24.1856 25.0673 24.036 24.7916L23.7723 24.9347C23.8715 25.1175 23.8671 25.339 23.7609 25.5177L24.0188 25.671ZM17.5932 24.4048L13.2789 16.4563L13.0152 16.5994L17.3295 24.5479L17.5932 24.4048ZM13.2789 16.4563C13.1232 16.1695 12.8232 15.991 12.4969 15.991V16.291C12.7132 16.291 12.9121 16.4093 13.0152 16.5994L13.2789 16.4563ZM12.4969 15.991C12.1707 15.991 11.8706 16.1695 11.715 16.4563L11.9787 16.5994C12.0818 16.4093 12.2807 16.291 12.4969 16.291V15.991ZM11.715 16.4563L7.40066 24.4048L7.66432 24.5479L11.9787 16.5994L11.715 16.4563ZM7.53249 24.3264H2.98294V24.6264H7.53249V24.3264ZM3.11477 24.5479L12.629 7.02042L12.3653 6.8773L2.85111 24.4048L3.11477 24.5479ZM12.3653 7.02041L21.8791 24.5479L22.1427 24.4048L12.629 6.8773L12.3653 7.02041ZM22.0109 24.3264H17.4614V24.6264H22.0109V24.3264Z" fill="white"/>
<path fill-rule="evenodd" clip-rule="evenodd" d="M13.2858 13.4453H11.7077C11.2992 13.4453 10.968 13.7765 10.968 14.185C10.968 14.5935 11.2992 14.9247 11.7077 14.9247H13.2858C13.6943 14.9247 14.0255 14.5935 14.0255 14.185C14.0255 13.7765 13.6943 13.4453 13.2858 13.4453Z" fill="white" stroke="white" stroke-width="0.3"/>
<path fill-rule="evenodd" clip-rule="evenodd" d="M13.2858 10.9629H11.7077C11.2992 10.9629 10.968 11.2941 10.968 11.7026C10.968 12.1111 11.2992 12.4423 11.7077 12.4423H13.2858C13.6943 12.4423 14.0255 12.1111 14.0255 11.7026C14.0255 11.2941 13.6943 10.9629 13.2858 10.9629Z" fill="white" stroke="white" stroke-width="0.3"/>
</svg>
