<svg width="375" height="177" viewBox="0 0 375 177" fill="none" xmlns="http://www.w3.org/2000/svg">
<path fill-rule="evenodd" clip-rule="evenodd" d="M188 177C358.104 177 496 39.1037 496 -131C496 -301.104 358.104 -439 188 -439C17.8963 -439 -120 -301.104 -120 -131C-120 39.1037 17.8963 177 188 177Z" fill="url(#paint0_linear_1_651)"/>
<g opacity="0.0564242">
<mask id="mask0_1_651" style="mask-type:luminance" maskUnits="userSpaceOnUse" x="-120" y="-439" width="616" height="616">
<path fill-rule="evenodd" clip-rule="evenodd" d="M188 177C358.104 177 496 39.1037 496 -131C496 -301.104 358.104 -439 188 -439C17.8963 -439 -120 -301.104 -120 -131C-120 39.1037 17.8963 177 188 177Z" fill="white"/>
</mask>
<g mask="url(#mask0_1_651)">
<path fill-rule="evenodd" clip-rule="evenodd" d="M318.147 195.773C216.77 195.773 134.293 113.296 134.293 11.9181V-221.416C134.293 -234.225 144.679 -244.609 157.489 -244.609C170.299 -244.609 180.685 -234.225 180.685 -221.416V11.9181C180.685 87.7165 242.35 149.382 318.147 149.382C393.943 149.382 455.609 87.7165 455.609 11.9181V-100.919C455.609 -113.729 465.995 -124.112 478.804 -124.112C491.614 -124.112 501.999 -113.729 501.999 -100.919V11.9181C501.999 113.296 419.523 195.773 318.147 195.773H318.147Z" fill="white"/>
<path fill-rule="evenodd" clip-rule="evenodd" d="M318.687 86.474C270.392 86.474 227.336 54.0889 213.986 7.72342C210.44 -4.58932 217.546 -17.4431 229.855 -20.9883C242.179 -24.5296 255.022 -17.4233 258.566 -5.11558C266.228 21.4937 290.951 40.0801 318.687 40.0801C346.422 40.0801 371.145 21.4937 378.808 -5.11802C382.356 -17.4283 395.218 -24.5284 407.517 -20.9883C419.829 -17.4406 426.933 -4.58688 423.388 7.72342C410.031 54.0889 366.98 86.474 318.687 86.474Z" fill="white"/>
</g>
</g>
<defs>
<linearGradient id="paint0_linear_1_651" x1="125.166" y1="118.271" x2="256.544" y2="-26.6343" gradientUnits="userSpaceOnUse">
<stop stop-color="#6045CC"/>
<stop offset="1" stop-color="#4B63EA"/>
</linearGradient>
</defs>
</svg>
