<svg width="28" height="28" viewBox="0 0 28 28" fill="none" xmlns="http://www.w3.org/2000/svg">
<path fill-rule="evenodd" clip-rule="evenodd" d="M26.2016 6.07254C25.2927 6.48855 24.327 6.76711 23.3362 6.89909C24.3707 6.26695 25.1507 5.29195 25.5403 4.14391C24.5514 4.6847 23.4952 5.09233 22.3994 5.35619C20.9982 3.8794 18.8433 3.39628 16.9458 4.13354C15.0482 4.8708 13.7847 6.6821 13.7482 8.7175C13.7489 9.10906 13.8045 9.49858 13.9135 9.87468C9.92069 9.66614 6.20027 7.78593 3.66421 4.69495C3.19791 5.4381 2.9497 6.29728 2.94786 7.17461C2.94686 8.84734 3.7985 10.4052 5.20711 11.3074C4.41354 11.3098 3.63367 11.1005 2.94786 10.7012C2.90409 13.0825 4.57745 15.1509 6.91531 15.6055C6.48716 15.7412 6.04187 15.8154 5.59283 15.8259L4.65607 15.7157C5.32924 17.7446 7.20282 19.1333 9.33987 19.1872C7.57315 20.5528 5.40121 21.2897 3.16827 21.2811H1.95599C4.21578 22.7606 6.85929 23.5459 9.56028 23.5404C18.7075 23.5404 23.7219 15.9361 23.7219 9.37875V8.66241C24.6965 7.95418 25.5364 7.07703 26.2016 6.07254Z" fill="#3C57EF"/>
</svg>
